<svg width="47" height="45" viewBox="0 0 47 45" fill="none" xmlns="http://www.w3.org/2000/svg">
<path d="M23.4667 0.00144175C10.5028 0.00144175 0 10.3346 0 23.0697C0 33.2673 6.72322 41.9107 16.041 44.96C17.2187 45.1777 17.6441 44.464 17.6441 43.847C17.6441 43.2991 17.6309 41.8501 17.6221 39.9268C11.091 41.3167 9.71523 36.8256 9.71523 36.8256C8.64603 34.167 7.10309 33.4533 7.10309 33.4533C4.97935 32.0274 7.27176 32.0577 7.27176 32.0577C9.6243 32.2148 10.8622 34.4294 10.8622 34.4294C12.9551 37.9588 16.3534 36.938 17.6983 36.344C17.9037 34.8576 18.5153 33.8354 19.1811 33.2659C13.9715 32.6877 8.4935 30.7053 8.4935 21.8658C8.4935 19.3413 9.40283 17.2853 10.9062 15.6705C10.6466 15.0924 9.85163 12.7423 11.113 9.56467C11.113 9.56467 13.0768 8.94904 17.5663 11.9306C19.4451 11.4188 21.4398 11.1636 23.433 11.1506C25.4277 11.1636 27.4209 11.4202 29.2997 11.9306C33.7628 8.94904 35.7252 9.56467 35.7252 9.56467C36.9851 12.7423 36.1901 15.091 35.9613 15.6705C37.45 17.2853 38.3593 19.3427 38.3593 21.8658C38.3593 30.7255 32.874 32.6791 27.6585 33.2428C28.474 33.9334 29.2381 35.3535 29.2381 37.509C29.2381 40.5943 29.2088 43.0799 29.2088 43.8311C29.2088 44.4309 29.6194 45.1518 30.828 44.9196C40.2147 41.902 46.9306 33.2514 46.9306 23.0682C46.9306 10.3331 36.4277 0 23.4638 0L23.4667 0.00144175Z" fill="#AAAAAA"/>
</svg>
