<svg width="65" height="65" viewBox="0 0 65 65" fill="none" xmlns="http://www.w3.org/2000/svg">
<g clip-path="url(#clip0_3_155)">
<path d="M60.4481 0.998047L55.307 58.5914L32.1975 64.998L9.15171 58.6004L4.01605 0.998047H60.4481Z" fill="#264DE4"/>
<path d="M32.2321 60.101L50.9056 54.924L55.299 5.70789H32.2321V60.101Z" fill="#2965F1"/>
<path d="M32.2321 27.0718H15.7894L16.4226 34.1364H32.2321V27.0718Z" fill="#EBEBEB"/>
<path d="M32.2321 12.7727H32.2076H14.5172L15.1594 19.8375H32.2321V12.7727Z" fill="#EBEBEB"/>
<path d="M16.7383 37.6689L17.728 48.7615L32.1995 52.7789L32.2321 52.7699V45.4196L32.2011 45.4279L24.3331 43.3034L23.8301 37.6689H20.0069H16.7383Z" fill="#EBEBEB"/>
<path d="M40.907 34.1364L40.087 43.2988L32.2076 45.4255V52.7754L46.6907 48.7615L46.7969 47.5679L48.457 28.9689L48.6294 27.0718L49.9048 12.7727H32.2076V19.8375H42.1625L41.5197 27.0718H32.2076V34.1364H40.907Z" fill="white"/>
</g>
<defs>
<clipPath id="clip0_3_155">
<rect width="64" height="64" fill="white" transform="translate(0.216064 0.998047)"/>
</clipPath>
</defs>
</svg>
