<svg width="106" height="24" viewBox="0 0 106 24" fill="none" xmlns="http://www.w3.org/2000/svg">
<path d="M32.669 23.7531V0.708088H33.919V4.33309C34.0666 4.17235 34.2029 4.00161 34.327 3.82209C35.371 1.65609 37.573 0.289087 39.977 0.316087C42.827 0.231087 45.143 1.28609 46.504 3.82209C47.3701 5.39756 47.8467 7.15737 47.894 8.95457C47.9413 10.7518 47.558 12.5342 46.776 14.1531C45.508 16.9951 42.376 18.4081 39.023 17.8891C37.9795 17.8004 36.9749 17.4517 36.1008 16.8749C35.2267 16.2981 34.511 15.5116 34.019 14.5871V23.7521L32.669 23.7531ZM33.919 8.86009L34.199 11.5661C34.693 14.6461 36.514 16.4661 39.373 16.8081C40.7156 17.0288 42.0932 16.7771 43.271 16.0959C44.4488 15.4146 45.3539 14.346 45.832 13.0721C46.944 10.4221 46.862 7.42209 45.612 4.83409C45.1017 3.69217 44.2337 2.74736 43.1389 2.14245C42.0442 1.53754 40.7823 1.30539 39.544 1.48109C38.3816 1.56565 37.2745 2.01012 36.3763 2.75275C35.4781 3.49539 34.8335 4.49932 34.532 5.62509C34.2658 6.69043 34.0611 7.77022 33.919 8.85909V8.86009ZM73.417 11.9921C73.2274 13.6147 72.455 15.1132 71.2434 16.2089C70.0318 17.3046 68.4634 17.923 66.83 17.9491C61.588 18.2131 59.128 14.7321 58.737 10.7151C58.4651 8.53365 58.8192 6.31987 59.758 4.33209C60.4114 2.96848 61.4819 1.84829 62.8146 1.13379C64.1472 0.419303 65.6726 0.147615 67.17 0.358087C68.5935 0.479081 69.9429 1.04468 71.0272 1.97483C72.1115 2.90499 72.8758 4.1526 73.212 5.54109C73.4783 6.80592 73.6743 8.08455 73.799 9.37109H60.032C59.777 13.0131 61.734 15.9411 64.508 16.6471C67.963 17.4971 70.916 16.0001 71.988 12.7151C72.226 11.8721 72.66 11.7531 73.426 11.9921H73.417ZM60.022 8.20509H72.336C72.259 4.32509 69.843 1.50509 66.566 1.47309C62.866 1.41309 60.183 4.12009 60.022 8.20509ZM75.962 12.0771H77.169C77.2133 12.9663 77.5021 13.8261 78.0035 14.5618C78.5049 15.2975 79.1996 15.8807 80.011 16.2471C81.0299 16.7056 82.139 16.9284 83.2559 16.899C84.3728 16.8696 85.4687 16.5886 86.462 16.0771C87.0035 15.8333 87.457 15.4292 87.7614 14.9193C88.0658 14.4094 88.2063 13.8184 88.164 13.2261C88.1952 12.6549 88.0392 12.089 87.7198 11.6144C87.4004 11.1398 86.9349 10.7823 86.394 10.5961C85.066 10.1021 83.654 9.83009 82.301 9.39609C80.8931 8.99525 79.5164 8.49191 78.182 7.89009C76.002 6.82609 75.867 2.68209 78.335 1.37009C79.5987 0.656998 81.0209 0.271696 82.4717 0.249338C83.9226 0.226979 85.3559 0.568276 86.641 1.24209C88.235 2.12209 89.116 3.89909 88.854 5.70209H87.819C87.819 5.65209 87.725 5.60809 87.725 5.55709C87.597 2.25709 84.823 1.22509 81.845 1.51509C80.945 1.61509 80.092 1.88709 79.292 2.28909C78.8111 2.50871 78.4103 2.87237 78.1452 3.32975C77.88 3.78714 77.7636 4.31562 77.812 4.84209C77.813 5.36894 77.9772 5.88256 78.282 6.31231C78.5867 6.74207 79.0171 7.06688 79.514 7.24209C80.814 7.71909 82.194 8.02509 83.539 8.39909L86.789 9.24909C87.5277 9.49155 88.1754 9.95253 88.6464 10.5711C89.1175 11.1896 89.3896 11.9365 89.427 12.7131C89.687 14.4581 88.797 16.1731 87.223 16.9681C84.381 18.5761 79.7 18.1511 77.615 16.1181C76.548 15.0451 75.953 13.5881 75.965 12.0761L75.962 12.0771ZM104.742 5.70309H103.61C103.61 5.55009 103.55 5.40309 103.533 5.28609C103.515 4.43756 103.206 3.62104 102.657 2.97343C102.109 2.32581 101.354 1.88648 100.52 1.72909C98.9468 1.27786 97.2686 1.35871 95.746 1.95909C95.144 2.13138 94.6139 2.49392 94.235 2.9925C93.8561 3.49108 93.6488 4.0989 93.644 4.72509C93.6225 5.33994 93.8139 5.94338 94.186 6.43335C94.5581 6.92332 95.0879 7.26976 95.686 7.41409L100.86 8.74209C101.42 8.87628 101.971 9.04392 102.51 9.24409C104.16 9.84409 105.28 11.3761 105.33 13.1271C105.355 13.9842 105.12 14.8287 104.656 15.5497C104.192 16.2707 103.52 16.8346 102.73 17.1671C101.529 17.7126 100.228 18.0012 98.9086 18.0145C97.5897 18.0277 96.2826 17.7653 95.071 17.2441C94.0746 16.8144 93.2337 16.0898 92.6616 15.1678C92.0895 14.2458 91.8136 13.1707 91.871 12.0871H92.977C93.393 14.0921 94.77 15.7621 96.659 16.5521C98.548 17.3421 100.705 17.1481 102.423 16.0361C102.938 15.768 103.366 15.3579 103.656 14.8542C103.945 14.3505 104.085 13.7744 104.057 13.1941C104.083 12.6225 103.921 12.0581 103.597 11.5865C103.273 11.115 102.804 10.762 102.261 10.5811C100.933 10.0871 99.521 9.82409 98.168 9.38109C96.7522 8.98642 95.3672 8.48876 94.024 7.89209C91.896 6.84509 91.726 2.73509 94.152 1.42409C95.4313 0.681071 96.8812 0.281903 98.3606 0.26543C99.84 0.248958 101.298 0.615742 102.594 1.33009C103.335 1.77234 103.931 2.42053 104.311 3.1957C104.69 3.97088 104.836 4.8396 104.73 5.69609L104.742 5.70309ZM30.612 17.5331C30.1664 17.7016 29.6746 17.7011 29.2293 17.5318C28.784 17.3625 28.4161 17.0361 28.195 16.6141L23.795 10.5291L23.157 9.67909L18.051 16.6231C17.8429 17.0269 17.4949 17.3412 17.072 17.5072C16.6491 17.6732 16.1802 17.6795 15.753 17.5251L22.331 8.70009L16.211 0.726087C17.119 0.398087 18.131 0.754088 18.636 1.57609L23.196 7.73609L27.783 1.60009C27.9927 1.20317 28.3409 0.89716 28.7615 0.740253C29.182 0.583346 29.6456 0.586491 30.064 0.749088L27.689 3.90009L24.472 8.08709C24.3827 8.16682 24.3113 8.26451 24.2624 8.37377C24.2135 8.48303 24.1882 8.60138 24.1882 8.72109C24.1882 8.84079 24.2135 8.95915 24.2624 9.06841C24.3113 9.17766 24.3827 9.27535 24.472 9.35509L30.599 17.5331H30.612ZM58.542 0.641088V1.84109C57.6813 1.78463 56.8183 1.90928 56.0087 2.20698C55.1991 2.50468 54.461 2.96883 53.8419 3.56945C53.2228 4.17008 52.7365 4.89385 52.4144 5.69403C52.0923 6.49422 51.9416 7.35305 51.972 8.21509C51.972 11.0178 51.972 13.8204 51.972 16.6231V17.5761H50.755V0.716087H51.955V4.17109C53.427 1.65109 55.699 0.716088 58.55 0.648088L58.542 0.641088ZM0.00200033 8.59009L0.538 5.94309C2.01 0.709088 8.01 -1.46891 12.138 1.77309C14.555 3.67109 15.158 6.36009 15.04 9.39009H1.423C1.203 14.8021 5.108 18.0701 10.103 16.4021C11.749 15.8021 12.988 14.4341 13.396 12.7341C13.66 11.8841 14.096 11.7381 14.894 11.9841C14.7609 13.0202 14.3946 14.0127 13.8227 14.8869C13.2508 15.761 12.4881 16.4941 11.592 17.0311C10.1116 17.8407 8.41302 18.1615 6.73926 17.9476C5.0655 17.7337 3.50224 16.996 2.273 15.8401C1.057 14.4731 0.323 12.7451 0.18 10.9201C0.18 10.6201 0.0800002 10.3401 0.0100002 10.0701C0.00333356 9.56542 0 9.07209 0 8.59009H0.00200033ZM1.44 8.22409H13.754C13.677 4.30109 11.201 1.51809 7.899 1.49209C4.223 1.44209 1.593 4.16409 1.431 8.20709L1.44 8.22409Z" fill="white"/>
</svg>
