<svg width="138" height="49" viewBox="0 0 138 49" fill="none" xmlns="http://www.w3.org/2000/svg">
<path d="M0.216064 0.998047H30.2161V16.998H15.2161L0.216064 0.998047ZM0.216064 16.998H15.2161L30.2161 32.998H15.2161V48.9981L0.216064 32.998V16.998Z" fill="white"/>
<path d="M66.4981 13.746V31.998H62.0521V21.052L57.9701 31.998H54.3821L50.2741 21.026V31.998H45.8281V13.746H51.0801L56.2021 26.382L61.2721 13.746H66.4981ZM76.2993 32.206C74.8779 32.206 73.5953 31.9027 72.4513 31.296C71.3246 30.6894 70.4319 29.8227 69.7733 28.696C69.1319 27.5694 68.8113 26.252 68.8113 24.744C68.8113 23.2534 69.1406 21.9447 69.7993 20.818C70.4579 19.674 71.3593 18.7987 72.5033 18.192C73.6473 17.5854 74.9299 17.282 76.3513 17.282C77.7726 17.282 79.0553 17.5854 80.1993 18.192C81.3433 18.7987 82.2446 19.674 82.9033 20.818C83.5619 21.9447 83.8913 23.2534 83.8913 24.744C83.8913 26.2347 83.5533 27.552 82.8773 28.696C82.2186 29.8227 81.3086 30.6894 80.1473 31.296C79.0033 31.9027 77.7206 32.206 76.2993 32.206ZM76.2993 28.358C77.1486 28.358 77.8679 28.046 78.4573 27.422C79.0639 26.798 79.3673 25.9054 79.3673 24.744C79.3673 23.5827 79.0726 22.69 78.4833 22.066C77.9113 21.442 77.2006 21.13 76.3513 21.13C75.4846 21.13 74.7653 21.442 74.1933 22.066C73.6213 22.6727 73.3353 23.5654 73.3353 24.744C73.3353 25.9054 73.6126 26.798 74.1673 27.422C74.7393 28.046 75.4499 28.358 76.2993 28.358ZM94.3359 28.228V31.998H92.0739C90.4619 31.998 89.2053 31.608 88.3039 30.828C87.4026 30.0307 86.9519 28.7394 86.9519 26.954V21.182H85.1839V17.49H86.9519V13.954H91.3979V17.49H94.3099V21.182H91.3979V27.006C91.3979 27.4394 91.5019 27.7514 91.7099 27.942C91.9179 28.1327 92.2646 28.228 92.7499 28.228H94.3359ZM99.0484 15.982C98.2684 15.982 97.6271 15.7567 97.1244 15.306C96.6391 14.838 96.3964 14.266 96.3964 13.59C96.3964 12.8967 96.6391 12.3247 97.1244 11.874C97.6271 11.406 98.2684 11.172 99.0484 11.172C99.8111 11.172 100.435 11.406 100.92 11.874C101.423 12.3247 101.674 12.8967 101.674 13.59C101.674 14.266 101.423 14.838 100.92 15.306C100.435 15.7567 99.8111 15.982 99.0484 15.982ZM101.258 17.49V31.998H96.8124V17.49H101.258ZM111.084 32.206C109.663 32.206 108.38 31.9027 107.236 31.296C106.11 30.6894 105.217 29.8227 104.558 28.696C103.917 27.5694 103.596 26.252 103.596 24.744C103.596 23.2534 103.926 21.9447 104.584 20.818C105.243 19.674 106.144 18.7987 107.288 18.192C108.432 17.5854 109.715 17.282 111.136 17.282C112.558 17.282 113.84 17.5854 114.984 18.192C116.128 18.7987 117.03 19.674 117.688 20.818C118.347 21.9447 118.676 23.2534 118.676 24.744C118.676 26.2347 118.338 27.552 117.662 28.696C117.004 29.8227 116.094 30.6894 114.932 31.296C113.788 31.9027 112.506 32.206 111.084 32.206ZM111.084 28.358C111.934 28.358 112.653 28.046 113.242 27.422C113.849 26.798 114.152 25.9054 114.152 24.744C114.152 23.5827 113.858 22.69 113.268 22.066C112.696 21.442 111.986 21.13 111.136 21.13C110.27 21.13 109.55 21.442 108.978 22.066C108.406 22.6727 108.12 23.5654 108.12 24.744C108.12 25.9054 108.398 26.798 108.952 27.422C109.524 28.046 110.235 28.358 111.084 28.358ZM129.875 17.334C131.574 17.334 132.926 17.8887 133.931 18.998C134.954 20.09 135.465 21.598 135.465 23.522V31.998H131.045V24.12C131.045 23.1494 130.794 22.3954 130.291 21.858C129.788 21.3207 129.112 21.052 128.263 21.052C127.414 21.052 126.738 21.3207 126.235 21.858C125.732 22.3954 125.481 23.1494 125.481 24.12V31.998H121.035V17.49H125.481V19.414C125.932 18.7727 126.538 18.27 127.301 17.906C128.064 17.5247 128.922 17.334 129.875 17.334Z" fill="white"/>
</svg>
