<svg width="121" height="60" viewBox="0 0 121 60" fill="none" xmlns="http://www.w3.org/2000/svg">
<path d="M72.7033 26.27C71.0033 26.27 69.7353 27.105 69.7353 29.115C69.7353 30.615 70.5703 31.68 72.6103 31.68C74.3403 31.68 75.5153 30.66 75.5153 29.052C75.5153 27.227 74.4653 26.27 72.7033 26.27ZM69.3033 40.46C68.9003 40.954 68.4993 41.48 68.4993 42.085C68.4993 43.32 70.0743 43.693 72.2393 43.693C74.0323 43.693 76.4743 43.568 76.4743 41.9C76.4743 40.91 75.2993 40.848 73.8143 40.755L69.3143 40.447L69.3033 40.46ZM78.4533 26.362C79.0083 27.075 79.5973 28.062 79.5973 29.485C79.5973 32.915 76.8973 34.925 73.0133 34.925C72.0133 34.925 71.1383 34.8 70.5703 34.647L69.5503 36.272L72.5803 36.457C77.9303 36.797 81.0803 36.953 81.0803 41.062C81.0803 44.618 77.9603 46.624 72.5803 46.624C66.9853 46.624 64.8533 45.202 64.8533 42.749C64.8533 41.359 65.4733 40.616 66.5533 39.595C65.5333 39.165 65.1933 38.391 65.1933 37.557C65.1933 36.877 65.5333 36.257 66.0903 35.682L68.0063 33.827C66.4913 33.087 65.3463 31.477 65.3463 29.202C65.3463 25.647 67.6963 23.206 72.4263 23.206C73.7563 23.206 74.5603 23.329 75.2713 23.516H81.2993V26.143L78.4543 26.359M86.7363 20.744C84.9863 20.744 83.9543 19.724 83.9543 17.96C83.9543 16.196 84.9743 15.24 86.7363 15.24C88.5293 15.24 89.5493 16.2 89.5493 17.96C89.5493 19.72 88.5283 20.744 86.7363 20.744ZM82.7363 39.322V36.882L84.3143 36.666C84.7463 36.604 84.8093 36.511 84.8093 36.046V26.96C84.8093 26.62 84.7163 26.404 84.4063 26.31L82.7363 25.723L83.0763 23.221H89.4763V36.051C89.4763 36.546 89.5063 36.607 89.9713 36.671L91.5463 36.887V39.325H82.7333M103.783 38.125C102.453 38.775 100.505 39.375 98.7433 39.375C95.0633 39.375 93.6733 37.893 93.6733 34.398V26.298C93.6733 26.113 93.6733 25.988 93.4233 25.988H91.2733V23.238C93.9933 22.938 95.0763 21.568 95.4163 18.198H98.3533V22.588C98.3533 22.803 98.3533 22.898 98.6013 22.898H102.961V25.988H98.3433V33.363C98.3433 35.188 98.7773 35.898 100.443 35.898C101.309 35.898 102.193 35.682 102.947 35.404L103.782 38.124" fill="#F03C2E"/>
<path d="M51.3433 29.25L32.8113 10.72C31.7453 9.65305 30.0143 9.65305 28.9463 10.72L25.0993 14.568L29.9793 19.448C31.1143 19.065 32.4143 19.323 33.3163 20.225C33.747 20.6564 34.0477 21.2003 34.184 21.7944C34.3204 22.3885 34.2869 23.009 34.0873 23.585L38.7913 28.289C39.9163 27.897 41.2413 28.1521 42.1513 29.059C42.5556 29.4625 42.8465 29.9654 42.9946 30.517C43.1426 31.0687 43.1427 31.6496 42.9948 32.2013C42.8468 32.753 42.5561 33.256 42.1519 33.6595C41.7477 34.0631 41.2443 34.353 40.6923 34.5C40.1409 34.6479 39.5603 34.648 39.0089 34.5001C38.4575 34.3523 37.9548 34.0619 37.5513 33.6581C36.5963 32.7021 36.3613 31.298 36.8443 30.121L32.4693 25.746V37.291C32.7693 37.445 33.0713 37.648 33.3293 37.906C34.5993 39.176 34.5993 41.2341 33.3293 42.5061C33.0275 42.8083 32.669 43.048 32.2745 43.2116C31.8799 43.3752 31.457 43.4594 31.0298 43.4594C30.6027 43.4594 30.1798 43.3752 29.7852 43.2116C29.3906 43.048 29.0322 42.8083 28.7303 42.5061C27.4603 41.233 27.4603 39.176 28.7303 37.906C29.0351 37.6015 29.397 37.3602 29.7953 37.196V25.546C29.4203 25.386 29.0453 25.1521 28.7303 24.8461C28.2739 24.3899 27.9636 23.8083 27.839 23.1751C27.7143 22.542 27.7809 21.8862 28.0303 21.291L23.2183 16.4781L10.5033 29.163C9.99221 29.6765 9.70526 30.3715 9.70526 31.0961C9.70526 31.8206 9.99221 32.5156 10.5033 33.029L29.0363 51.559C30.1023 52.626 31.8333 52.626 32.9013 51.559L51.3433 33.1161C51.8544 32.6026 52.1414 31.9076 52.1414 31.1831C52.1414 30.4585 51.8544 29.7635 51.3433 29.25Z" fill="#F03C2E"/>
</svg>
