<svg width="57" height="64" viewBox="0 0 57 64" fill="none" xmlns="http://www.w3.org/2000/svg">
<path d="M5.136 57.602L0 0H56.432L51.292 57.594L28.18 63.998L5.136 57.602Z" fill="#E44D26"/>
<path d="M46.89 53.926L51.284 4.70996H28.216V59.104L46.89 53.926Z" fill="#F16529"/>
<path d="M28.192 11.7739H10.5L12.406 33.1379H28.216V26.0739H18.868L18.222 18.8399H28.216V11.7739H28.192ZM28.216 44.3979L28.186 44.4059L20.318 42.2819L19.818 36.6479H12.722L13.712 47.7399L28.184 51.7399L28.216 51.7299V44.3979Z" fill="#EBEBEB"/>
<path d="M28.192 33.1379H36.892L36.092 42.2979L28.212 44.4239V51.7739L42.696 47.7599L44.636 26.0699H28.216L28.192 33.1379ZM45.72 13.6699L45.888 11.7739H28.188V18.8379H45.252L45.392 17.2499L45.72 13.6699Z" fill="white"/>
</svg>
