<svg width="79" height="77" viewBox="0 0 79 77" fill="none" xmlns="http://www.w3.org/2000/svg">
<mask id="path-1-outside-1_3_81" maskUnits="userSpaceOnUse" x="14.5451" y="48.7601" width="18.4266" height="18.1061" fill="black">
<rect fill="white" x="14.5451" y="48.7601" width="18.4266" height="18.1061"/>
<path d="M15.3278 56.8516L24.72 49.3825L32.189 58.7747L22.7969 66.2437L15.3278 56.8516Z"/>
</mask>
<path d="M15.3278 56.8516L24.72 49.3825L32.189 58.7747L22.7969 66.2437L15.3278 56.8516Z" fill="white"/>
<path d="M23.9373 50.0049L31.4064 59.3971L32.9717 58.1522L25.5026 48.7601L23.9373 50.0049ZM23.5795 65.6213L16.1105 56.2291L14.5451 57.474L22.0142 66.8662L23.5795 65.6213Z" fill="#87B7FF" mask="url(#path-1-outside-1_3_81)"/>
<mask id="path-3-outside-2_3_81" maskUnits="userSpaceOnUse" x="7.69845" y="40.1506" width="18.4266" height="18.1061" fill="black">
<rect fill="white" x="7.69845" y="40.1506" width="18.4266" height="18.1061"/>
<path d="M8.48113 48.2421L17.8733 40.773L25.3424 50.1652L15.9502 57.6342L8.48113 48.2421Z"/>
</mask>
<path d="M8.48113 48.2421L17.8733 40.773L25.3424 50.1652L15.9502 57.6342L8.48113 48.2421Z" fill="white"/>
<path d="M17.0906 41.3954L24.5597 50.7876L26.1251 49.5427L18.656 40.1506L17.0906 41.3954ZM16.7329 57.0118L9.26381 47.6196L7.69845 48.8645L15.1675 58.2567L16.7329 57.0118Z" fill="#87B7FF" mask="url(#path-3-outside-2_3_81)"/>
<mask id="path-5-outside-3_3_81" maskUnits="userSpaceOnUse" x="-0.39305" y="29.9757" width="19.049" height="18.8888" fill="black">
<rect fill="white" x="-0.39305" y="29.9757" width="19.049" height="18.8888"/>
<path d="M1.01205 38.8499L10.4042 31.3808L17.8733 40.773L8.48113 48.2421L1.01205 38.8499Z"/>
</mask>
<path d="M1.01205 38.8499L10.4042 31.3808L17.8733 40.773L8.48113 48.2421L1.01205 38.8499Z" fill="white"/>
<path d="M1.01205 38.8499L0.389631 38.0672L0.229374 39.4723L1.01205 38.8499ZM10.4042 31.3808L11.1869 30.7584L9.7818 30.5981L10.4042 31.3808ZM1.63448 39.6326L11.0266 32.1635L9.7818 30.5981L0.389631 38.0672L1.63448 39.6326ZM9.62154 32.0032L17.0906 41.3954L18.656 40.1506L11.1869 30.7584L9.62154 32.0032ZM9.26381 47.6196L1.79474 38.2275L0.229374 39.4723L7.69845 48.8645L9.26381 47.6196Z" fill="#87B7FF" mask="url(#path-5-outside-3_3_81)"/>
<mask id="path-7-outside-4_3_81" maskUnits="userSpaceOnUse" x="9.7818" y="23.1291" width="18.1061" height="18.4266" fill="black">
<rect fill="white" x="9.7818" y="23.1291" width="18.1061" height="18.4266"/>
<path d="M10.4042 31.3808L19.7964 23.9117L27.2655 33.3039L17.8733 40.773L10.4042 31.3808Z"/>
</mask>
<path d="M10.4042 31.3808L19.7964 23.9117L27.2655 33.3039L17.8733 40.773L10.4042 31.3808Z" fill="white"/>
<path d="M11.0266 32.1635L20.4188 24.6944L19.174 23.1291L9.7818 30.5981L11.0266 32.1635ZM26.6431 32.5212L17.2509 39.9903L18.4957 41.5557L27.8879 34.0866L26.6431 32.5212Z" fill="#87B7FF" mask="url(#path-7-outside-4_3_81)"/>
<mask id="path-9-outside-5_3_81" maskUnits="userSpaceOnUse" x="26.4828" y="25.2124" width="18.4266" height="18.1061" fill="black">
<rect fill="white" x="26.4828" y="25.2124" width="18.4266" height="18.1061"/>
<path d="M27.2655 33.3039L36.6576 25.8348L44.1267 35.227L34.7346 42.6961L27.2655 33.3039Z"/>
</mask>
<path d="M27.2655 33.3039L36.6576 25.8348L44.1267 35.227L34.7346 42.6961L27.2655 33.3039Z" fill="white"/>
<path d="M35.875 26.4573L43.344 35.8494L44.9094 34.6046L37.4403 25.2124L35.875 26.4573ZM35.5172 42.0737L28.0482 32.6815L26.4828 33.9263L33.9519 43.3185L35.5172 42.0737Z" fill="#87B7FF" mask="url(#path-9-outside-5_3_81)"/>
<mask id="path-11-outside-6_3_81" maskUnits="userSpaceOnUse" x="33.9519" y="34.6046" width="19.049" height="18.8888" fill="black">
<rect fill="white" x="33.9519" y="34.6046" width="19.049" height="18.8888"/>
<path d="M34.7346 42.6961L44.1267 35.227L51.5958 44.6192L42.2036 52.0883L34.7346 42.6961Z"/>
</mask>
<path d="M34.7346 42.6961L44.1267 35.227L51.5958 44.6192L42.2036 52.0883L34.7346 42.6961Z" fill="white"/>
<path d="M51.5958 44.6192L52.2182 45.4019L52.3785 43.9968L51.5958 44.6192ZM42.2036 52.0883L41.421 52.7107L42.8261 52.8709L42.2036 52.0883ZM43.344 35.8494L50.8131 45.2416L52.3785 43.9968L44.9094 34.6046L43.344 35.8494ZM50.9734 43.8365L41.5812 51.3056L42.8261 52.8709L52.2182 45.4019L50.9734 43.8365ZM42.9863 51.4658L35.5172 42.0737L33.9519 43.3185L41.421 52.7107L42.9863 51.4658Z" fill="#87B7FF" mask="url(#path-11-outside-6_3_81)"/>
<mask id="path-13-outside-7_3_81" maskUnits="userSpaceOnUse" x="60.2053" y="29.0586" width="19.049" height="18.8888" fill="black">
<rect fill="white" x="60.2053" y="29.0586" width="19.049" height="18.8888"/>
<path d="M60.988 37.1501L70.3801 29.681L77.8492 39.0732L68.457 46.5423L60.988 37.1501Z"/>
</mask>
<path d="M60.988 37.1501L70.3801 29.681L77.8492 39.0732L68.457 46.5423L60.988 37.1501Z" fill="white"/>
<path d="M77.8492 39.0732L78.4716 39.8559L78.6319 38.4508L77.8492 39.0732ZM68.457 46.5423L67.6744 47.1647L69.0795 47.325L68.457 46.5423ZM69.5975 30.3034L77.0665 39.6956L78.6319 38.4508L71.1628 29.0586L69.5975 30.3034ZM77.2268 38.2905L67.8346 45.7596L69.0795 47.325L78.4716 39.8559L77.2268 38.2905ZM69.2397 45.9198L61.7706 36.5277L60.2053 37.7725L67.6744 47.1647L69.2397 45.9198Z" fill="#87B7FF" mask="url(#path-13-outside-7_3_81)"/>
<mask id="path-15-outside-8_3_81" maskUnits="userSpaceOnUse" x="22.0142" y="58.1522" width="19.049" height="18.8888" fill="black">
<rect fill="white" x="22.0142" y="58.1522" width="19.049" height="18.8888"/>
<path d="M22.7969 66.2437L32.189 58.7747L39.6581 68.1668L30.2659 75.6359L22.7969 66.2437Z"/>
</mask>
<path d="M22.7969 66.2437L32.189 58.7747L39.6581 68.1668L30.2659 75.6359L22.7969 66.2437Z" fill="white"/>
<path d="M39.6581 68.1668L40.2805 68.9495L40.4408 67.5444L39.6581 68.1668ZM30.2659 75.6359L29.4833 76.2583L30.8884 76.4186L30.2659 75.6359ZM31.4064 59.3971L38.8754 68.7892L40.4408 67.5444L32.9717 58.1522L31.4064 59.3971ZM39.0357 67.3841L29.6435 74.8532L30.8884 76.4186L40.2805 68.9495L39.0357 67.3841ZM31.0486 75.0135L23.5795 65.6213L22.0142 66.8662L29.4833 76.2583L31.0486 75.0135Z" fill="#87B7FF" mask="url(#path-15-outside-8_3_81)"/>
<mask id="path-17-outside-9_3_81" maskUnits="userSpaceOnUse" x="19.174" y="15.66" width="17.4837" height="17.6439" fill="black">
<rect fill="white" x="19.174" y="15.66" width="17.4837" height="17.6439"/>
<path d="M19.7964 23.9117L29.1886 16.4427L36.6576 25.8348L27.2655 33.3039L19.7964 23.9117Z"/>
</mask>
<path d="M19.7964 23.9117L29.1886 16.4427L36.6576 25.8348L27.2655 33.3039L19.7964 23.9117Z" fill="white"/>
<path d="M20.4188 24.6944L29.811 17.2253L28.5661 15.66L19.174 23.1291L20.4188 24.6944Z" fill="#87B7FF" mask="url(#path-17-outside-9_3_81)"/>
<mask id="path-19-outside-10_3_81" maskUnits="userSpaceOnUse" x="28.5661" y="8.19091" width="18.1061" height="18.4266" fill="black">
<rect fill="white" x="28.5661" y="8.19091" width="18.1061" height="18.4266"/>
<path d="M29.1886 16.4427L38.5807 8.97359L46.0498 18.3658L36.6576 25.8348L29.1886 16.4427Z"/>
</mask>
<path d="M29.1886 16.4427L38.5807 8.97359L46.0498 18.3658L36.6576 25.8348L29.1886 16.4427Z" fill="white"/>
<path d="M29.811 17.2253L39.2032 9.75627L37.9583 8.19091L28.5661 15.66L29.811 17.2253ZM45.4274 17.5831L36.0352 25.0522L37.2801 26.6175L46.6722 19.1484L45.4274 17.5831Z" fill="#87B7FF" mask="url(#path-19-outside-10_3_81)"/>
<mask id="path-21-outside-11_3_81" maskUnits="userSpaceOnUse" x="37.9583" y="0.0994049" width="18.2664" height="18.2664" fill="black">
<rect fill="white" x="37.9583" y="0.0994049" width="18.2664" height="18.2664"/>
<path d="M38.5807 8.97359L47.9729 1.50451L55.442 10.8967L46.0498 18.3658L38.5807 8.97359Z"/>
</mask>
<path d="M38.5807 8.97359L47.9729 1.50451L55.442 10.8967L46.0498 18.3658L38.5807 8.97359Z" fill="white"/>
<path d="M47.9729 1.50451L48.7556 0.882086L47.3505 0.721828L47.9729 1.50451ZM39.2032 9.75627L48.5953 2.28719L47.3505 0.721828L37.9583 8.19091L39.2032 9.75627ZM47.1902 2.12693L54.6593 11.5191L56.2247 10.2743L48.7556 0.882086L47.1902 2.12693Z" fill="#87B7FF" mask="url(#path-21-outside-11_3_81)"/>
<mask id="path-23-outside-12_3_81" maskUnits="userSpaceOnUse" x="45.2671" y="10.2743" width="18.4266" height="18.1061" fill="black">
<rect fill="white" x="45.2671" y="10.2743" width="18.4266" height="18.1061"/>
<path d="M46.0498 18.3658L55.442 10.8967L62.9111 20.2888L53.5189 27.7579L46.0498 18.3658Z"/>
</mask>
<path d="M46.0498 18.3658L55.442 10.8967L62.9111 20.2888L53.5189 27.7579L46.0498 18.3658Z" fill="white"/>
<path d="M54.6593 11.5191L62.1284 20.9113L63.6938 19.6664L56.2247 10.2743L54.6593 11.5191ZM54.3016 27.1355L46.8325 17.7433L45.2671 18.9882L52.7362 28.3803L54.3016 27.1355Z" fill="#87B7FF" mask="url(#path-23-outside-12_3_81)"/>
<mask id="path-25-outside-13_3_81" maskUnits="userSpaceOnUse" x="52.7362" y="19.6664" width="18.4266" height="18.1061" fill="black">
<rect fill="white" x="52.7362" y="19.6664" width="18.4266" height="18.1061"/>
<path d="M53.5189 27.7579L62.9111 20.2889L70.3801 29.681L60.988 37.1501L53.5189 27.7579Z"/>
</mask>
<path d="M53.5189 27.7579L62.9111 20.2889L70.3801 29.681L60.988 37.1501L53.5189 27.7579Z" fill="white"/>
<path d="M62.1284 20.9113L69.5975 30.3034L71.1628 29.0586L63.6938 19.6664L62.1284 20.9113ZM61.7707 36.5277L54.3016 27.1355L52.7362 28.3804L60.2053 37.7725L61.7707 36.5277Z" fill="#87B7FF" mask="url(#path-25-outside-13_3_81)"/>
</svg>
