<svg width="86" height="45" viewBox="0 0 86 45" fill="none" xmlns="http://www.w3.org/2000/svg">
<path fill-rule="evenodd" clip-rule="evenodd" d="M0.673793 41.0432H3.48548V29.9046L7.87655 39.616C8.37393 40.7834 9.08848 41.2158 10.472 41.2158C11.8556 41.2158 12.5275 40.7829 13.0413 39.616L17.4106 29.9046V41.0432H20.2441V29.9046C20.2441 28.8235 19.8112 28.3034 18.9027 28.0222C16.7615 27.3736 15.3338 27.9359 14.6852 29.3844L10.3814 38.9878L6.22832 29.3844C5.60103 27.9359 4.15155 27.3736 1.98898 28.0222C1.10185 28.3034 0.66943 28.8231 0.66943 29.9046L0.668945 41.0432H0.673793ZM22.5846 31.9809H25.4181V38.1021C25.3967 38.4477 25.5262 39.2268 27.0663 39.2476C27.8662 39.2694 33.1657 39.2476 33.2084 39.2476V31.9372H36.0419V41.9517C36.0419 44.4172 32.9878 44.9573 31.5645 44.9796H22.6544V43.0987H31.5873C33.4042 42.9038 33.188 41.9958 33.188 41.6928V40.9569H27.1962C24.4059 40.9351 22.6103 39.7023 22.5894 38.2965V31.9799L22.5846 31.9809ZM83.3625 24.8862C81.6328 24.8426 80.291 25.0161 79.1663 25.4922C78.8425 25.6231 78.3228 25.6231 78.2801 26.0332C78.4532 26.2053 78.474 26.4869 78.6258 26.7254C78.8851 27.1583 79.3399 27.7415 79.7505 28.044C80.2052 28.3906 80.6594 28.7363 81.1345 29.0393C81.978 29.558 82.9296 29.861 83.7513 30.3801C84.2273 30.6831 84.7029 31.0724 85.1789 31.3972C85.4213 31.5703 85.5682 31.8519 85.8712 31.9595V31.8941C85.72 31.7002 85.6763 31.419 85.5256 31.2018C85.3089 30.9861 85.0927 30.7907 84.876 30.575C84.2491 29.7315 83.4701 28.9956 82.6266 28.3906C81.9344 27.9146 80.4209 27.266 80.1397 26.4661L80.0971 26.4225C80.5721 26.3788 81.1345 26.2058 81.5892 26.0758C82.3251 25.8819 82.995 25.9246 83.7513 25.7302C84.0979 25.6429 84.4435 25.5353 84.7902 25.4272V25.2333C84.4009 24.844 84.1197 24.3248 83.7091 23.9574C82.6063 23.0058 81.3943 22.0755 80.1397 21.297C79.4693 20.8645 78.604 20.5829 77.8904 20.2159C77.6301 20.086 77.1981 20.021 77.0469 19.8048C76.6566 19.3297 76.4409 18.702 76.1597 18.1391C75.5329 16.9495 74.927 15.6304 74.3864 14.3758C73.9972 13.5323 73.7587 12.6888 73.2836 11.9103C71.0556 8.23329 68.6327 6.00576 64.9125 3.82088C64.1126 3.36665 63.161 3.17129 62.1493 2.93375L60.5273 2.84649C60.1806 2.69524 59.835 2.28415 59.532 2.08928C58.2992 1.31073 55.1196 -0.376281 54.2107 1.85174C53.6265 3.25758 55.076 4.6416 55.568 5.35568C55.9365 5.85305 56.4115 6.41539 56.6719 6.97773C56.8173 7.34518 56.8658 7.73494 57.0175 8.12421C57.3632 9.07582 57.688 10.136 58.1422 11.0232C58.3846 11.4774 58.6391 11.9539 58.9421 12.3645C59.1151 12.6021 59.4181 12.7107 59.4826 13.0999C59.1796 13.5328 59.1587 14.181 58.9857 14.7225C58.2067 17.1667 58.5096 20.1946 59.6125 21.9892C59.9591 22.5297 60.776 23.7198 61.8841 23.2651C62.8576 22.8759 62.6404 21.6431 62.9216 20.5616C62.987 20.3022 62.9434 20.1291 63.0728 19.9556V19.9992L63.9599 21.7943C64.6304 22.854 65.7987 23.9574 66.7716 24.6933C67.2903 25.0825 67.7014 25.7535 68.35 25.991V25.9256H68.3074C68.1775 25.7317 67.9826 25.6444 67.8095 25.4931C67.4202 25.1039 66.9878 24.6278 66.6849 24.1954C65.7769 22.9844 64.977 21.6431 64.2629 20.2591C63.9163 19.5886 63.6133 18.8532 63.3331 18.1828C63.2022 17.9229 63.2022 17.5332 62.9865 17.4042C62.6617 17.8793 62.1866 18.2914 61.9477 18.875C61.5366 19.8048 61.4939 20.9513 61.3427 22.1409C61.2554 22.1628 61.2942 22.1409 61.2554 22.1846C60.5641 22.012 60.3256 21.2974 60.0662 20.6924C59.4176 19.1567 59.309 16.6911 59.8714 14.9173C60.0226 14.4631 60.6722 13.0354 60.4129 12.603C60.282 12.1919 59.8505 11.9544 59.612 11.6296C59.3308 11.2185 59.0288 10.6998 58.834 10.2456C58.3152 9.03365 58.0559 7.69325 57.4931 6.4818C57.2327 5.91947 56.779 5.33532 56.4111 4.81661C56 4.23246 55.5467 3.82137 55.2219 3.1296C55.1138 2.89206 54.9626 2.5023 55.1356 2.24246C55.1783 2.0694 55.2655 2.00492 55.4376 1.9613C55.7188 1.72376 56.5196 2.02625 56.8008 2.1552C57.6007 2.48 58.2711 2.7825 58.9416 3.23625C59.2446 3.45246 59.5694 3.86354 59.9586 3.97213H60.4133C61.1056 4.12338 61.8837 4.01576 62.5318 4.20967C63.6783 4.5781 64.7162 5.11814 65.6469 5.70277C68.48 7.49789 70.8166 10.0502 72.395 13.1004C72.6543 13.5978 72.7625 14.052 73.001 14.5712C73.4557 15.6314 74.018 16.7125 74.4713 17.7513C74.926 18.7679 75.3584 19.8068 76.007 20.6503C76.3318 21.1045 77.6291 21.342 78.2128 21.5801C78.6457 21.774 79.3156 21.9485 79.7059 22.186C80.4408 22.6403 81.1762 23.1595 81.8679 23.6568C82.2136 23.9157 83.2956 24.4567 83.3601 24.8882L83.3625 24.8862ZM61.3053 6.09059C61.0065 6.08795 60.7086 6.12429 60.4192 6.1987V6.24232H60.4618C60.6349 6.58845 60.9379 6.82648 61.1541 7.12946L61.6519 8.16784L61.6946 8.12421C61.9976 7.908 62.1493 7.56188 62.1493 7.04317C62.0194 6.89192 61.9981 6.74019 61.89 6.58894C61.76 6.37273 61.4789 6.26414 61.3053 6.09156V6.09059Z" fill="#00678C"/>
<path fill-rule="evenodd" clip-rule="evenodd" d="M38.201 41.0432H46.3336C47.2852 41.0432 48.1942 40.8493 48.9291 40.5027C50.1619 39.9404 50.746 39.1841 50.746 38.1889V36.1126C50.746 35.3127 50.0756 34.555 48.7352 34.0363C48.0429 33.777 47.1776 33.6252 46.3341 33.6252H42.9164C41.7699 33.6252 41.2294 33.2786 41.0777 32.5224C41.0564 32.4361 41.0564 32.3493 41.0564 32.263V30.9866C41.0564 30.9212 41.0564 30.8354 41.0777 30.7491C41.2289 30.1649 41.5319 30.0132 42.532 29.9056H50.859V28.0232H42.9426C41.7961 28.0232 41.1906 28.0886 40.6496 28.2617C38.984 28.7804 38.2486 29.6026 38.2486 31.0511V32.6959C38.2486 33.9709 39.6762 35.0534 42.0986 35.3127C42.358 35.3345 42.6391 35.3345 42.9203 35.3345H45.8406C45.9487 35.3345 46.0563 35.3345 46.1426 35.3564C47.0297 35.4426 47.419 35.5939 47.6784 35.9177C47.8514 36.0908 47.8951 36.2425 47.8951 36.4374V38.0808C47.8951 38.2747 47.7651 38.5355 47.5058 38.7512C47.2464 38.9669 46.8344 39.1187 46.2939 39.1405C46.1857 39.1405 46.1218 39.1623 46.0127 39.1623H38.201V41.0432ZM68.3515 37.7778C68.3515 39.7023 69.8058 40.7834 72.6999 41.0006C72.9811 41.0224 73.2404 41.0432 73.5216 41.0432H80.8756V39.1623H73.4571C71.8123 39.1623 71.1855 38.7512 71.1855 37.7565V28.0232H68.3462V37.7783L68.3515 37.7778ZM52.5406 37.8636V31.1592C52.5406 29.4504 53.7516 28.4115 56.11 28.0877C56.3694 28.0659 56.6287 28.044 56.8663 28.044H62.2298C62.511 28.044 62.7495 28.0659 63.0306 28.0877C65.3881 28.4115 66.5772 29.4499 66.5772 31.1592V37.8636C66.5772 39.2476 66.0803 39.9835 64.9116 40.4814L67.6796 42.9896H64.4142L62.1648 40.9569L59.8932 41.0869H56.8653C56.3105 41.0841 55.7582 41.0116 55.2214 40.8711C53.4278 40.3728 52.5406 39.4217 52.5406 37.8636ZM55.5899 37.7133C55.5899 37.7996 55.6383 37.8854 55.6553 37.9945C55.8066 38.7726 56.5415 39.2055 57.6661 39.2055H60.219L57.8833 37.0855H61.1488L63.2032 38.9461C63.5935 38.7294 63.831 38.4264 63.9173 38.0371C63.9391 37.9509 63.9391 37.8432 63.9391 37.756V31.3318C63.9391 31.2455 63.9391 31.1597 63.9173 31.0724C63.766 30.3375 63.0311 29.9269 61.9278 29.9269H57.6666C56.412 29.9269 55.5903 30.4674 55.5903 31.3318L55.5899 37.7133Z" fill="#CE8B2C"/>
</svg>
