<svg width="112" height="33" viewBox="0 0 112 33" fill="none" xmlns="http://www.w3.org/2000/svg">
<mask id="mask0_3_201" style="mask-type:luminance" maskUnits="userSpaceOnUse" x="0" y="0" width="112" height="33">
<path d="M111.673 0H0.67334V33H111.673V0Z" fill="white"/>
</mask>
<g mask="url(#mask0_3_201)">
<path d="M98.3627 32.7407C98.0757 32.7407 97.8078 32.6637 97.5591 32.5289L95.0145 31.0081C94.6319 30.7963 94.8232 30.7193 94.938 30.6808C95.4546 30.5075 95.5502 30.469 96.0859 30.161C96.1433 30.1225 96.2199 30.1418 96.2773 30.1803L98.2288 31.3546C98.3053 31.3931 98.4009 31.3931 98.4583 31.3546L106.092 26.9075C106.168 26.869 106.207 26.792 106.207 26.6958V17.8209C106.207 17.7247 106.168 17.6477 106.092 17.6092L98.4583 13.1814C98.3818 13.1429 98.2861 13.1429 98.2288 13.1814L90.595 17.6092C90.5184 17.6477 90.4802 17.7439 90.4802 17.8209V26.6958C90.4802 26.7728 90.5184 26.869 90.595 26.9075L92.6804 28.1204C93.8092 28.6979 94.5171 28.0241 94.5171 27.3503V18.591C94.5171 18.4755 94.6127 18.36 94.7467 18.36H95.7224C95.8372 18.36 95.952 18.4562 95.952 18.591V27.3503C95.952 28.8712 95.1293 29.7567 93.6944 29.7567C93.2544 29.7567 92.91 29.7567 91.9342 29.2755L89.9253 28.1204C89.4279 27.8316 89.1218 27.2926 89.1218 26.715V17.8402C89.1218 17.2626 89.4279 16.7236 89.9253 16.4348L97.5591 11.9878C98.0374 11.7183 98.6879 11.7183 99.1662 11.9878L106.8 16.4348C107.297 16.7236 107.603 17.2626 107.603 17.8402V26.715C107.603 27.2926 107.297 27.8316 106.8 28.1204L99.1662 32.5674C98.9366 32.6637 98.6497 32.7407 98.3627 32.7407Z" fill="#5FA04E"/>
<path d="M100.735 26.6379C97.3867 26.6379 96.698 25.0978 96.698 23.7887C96.698 23.6732 96.7936 23.5577 96.9275 23.5577H97.9224C98.0372 23.5577 98.1329 23.6347 98.1329 23.7502C98.2859 24.7705 98.726 25.2711 100.754 25.2711C102.361 25.2711 103.05 24.9053 103.05 24.039C103.05 23.5385 102.858 23.1727 100.352 22.9224C98.2668 22.7106 96.9658 22.2486 96.9658 20.5737C96.9658 19.0144 98.2668 18.0903 100.448 18.0903C102.897 18.0903 104.102 18.9374 104.255 20.7855C104.255 20.8433 104.236 20.901 104.198 20.9588C104.159 20.9973 104.102 21.0358 104.044 21.0358H103.03C102.935 21.0358 102.839 20.9588 102.82 20.8625C102.59 19.8037 101.997 19.4572 100.429 19.4572C98.6686 19.4572 98.4581 20.0732 98.4581 20.5352C98.4581 21.0935 98.7068 21.2668 101.079 21.5748C103.432 21.8828 104.542 22.3256 104.542 23.9812C104.542 25.6753 103.145 26.6379 100.735 26.6379Z" fill="#5FA04E"/>
<path d="M111.756 17.3202C111.756 18.1288 111.086 18.8026 110.282 18.8026C109.479 18.8026 108.809 18.148 108.809 17.3202C108.809 16.4732 109.498 15.8379 110.282 15.8379C111.067 15.8379 111.756 16.4924 111.756 17.3202ZM109.039 17.3202C109.039 18.0133 109.594 18.5716 110.263 18.5716C110.952 18.5716 111.507 17.994 111.507 17.3202C111.507 16.6272 110.952 16.0882 110.263 16.0882C109.613 16.0882 109.039 16.6272 109.039 17.3202ZM109.728 16.4924H110.302C110.493 16.4924 110.876 16.4924 110.876 16.9352C110.876 17.2432 110.684 17.301 110.569 17.3395C110.799 17.3587 110.818 17.5128 110.837 17.7245C110.856 17.8593 110.876 18.0903 110.914 18.1673H110.569C110.569 18.0903 110.512 17.6668 110.512 17.6475C110.493 17.5513 110.455 17.5128 110.34 17.5128H110.053V18.1865H109.728V16.4924ZM110.034 17.224H110.282C110.493 17.224 110.531 17.07 110.531 16.993C110.531 16.762 110.378 16.762 110.282 16.762H110.015V17.224H110.034Z" fill="#5FA04E"/>
<path fill-rule="evenodd" clip-rule="evenodd" d="M18.8298 17.4415C18.8298 17.095 18.6385 16.7678 18.3324 16.5945L10.2395 11.8779C10.1055 11.8009 9.95249 11.7624 9.79943 11.7432C9.7803 11.7432 9.7229 11.7432 9.7229 11.7432C9.56985 11.7432 9.41679 11.8009 9.28286 11.8779L1.17078 16.5752C0.864663 16.7485 0.67334 17.0758 0.67334 17.4415L0.692472 30.0704C0.692472 30.2437 0.788134 30.4169 0.941192 30.4939C1.09425 30.5902 1.28557 30.5902 1.4195 30.4939L6.24083 27.7217C6.54695 27.5485 6.73827 27.2212 6.73827 26.8747V20.9645C6.73827 20.618 6.92959 20.2907 7.23571 20.1175L9.28286 18.9239C9.43592 18.8276 9.60811 18.7891 9.7803 18.7891C9.95249 18.7891 10.1247 18.8276 10.2586 18.9239L12.3057 20.1175C12.6118 20.2907 12.8032 20.618 12.8032 20.9645V26.8747C12.8032 27.2212 12.9945 27.5485 13.3006 27.7217L18.0837 30.4939C18.2367 30.5902 18.428 30.5902 18.5811 30.4939C18.7342 30.4169 18.8298 30.2437 18.8298 30.0704V17.4415Z" fill="white"/>
<path fill-rule="evenodd" clip-rule="evenodd" d="M57.8215 0.0577539C57.6684 -0.0192513 57.4771 -0.0192513 57.3431 0.0577539C57.1901 0.15401 57.0944 0.308021 57.0944 0.481283V12.9946C57.0944 13.1101 57.037 13.2256 56.9222 13.3027C56.8074 13.3604 56.6927 13.3604 56.5779 13.3027L54.5498 12.1283C54.2437 11.9551 53.8802 11.9551 53.5741 12.1283L45.462 16.8449C45.1559 17.0182 44.9646 17.3454 44.9646 17.6919V27.1058C44.9646 27.4524 45.1559 27.7796 45.462 27.9529L53.5741 32.6695C53.8802 32.8427 54.2437 32.8427 54.5498 32.6695L62.6619 27.9529C62.968 27.7796 63.1594 27.4524 63.1594 27.1058V3.6385C63.1594 3.27272 62.968 2.94545 62.6619 2.77219L57.8215 0.0577539ZM57.0753 24.0064C57.0753 24.1026 57.037 24.1796 56.9605 24.2181L54.1863 25.8353C54.1098 25.8738 54.0141 25.8738 53.9376 25.8353L51.1634 24.2181C51.0869 24.1796 51.0486 24.0834 51.0486 24.0064V20.7722C51.0486 20.6759 51.0869 20.5989 51.1634 20.5604L53.9376 18.9433C54.0141 18.9048 54.1098 18.9048 54.1863 18.9433L56.9605 20.5604C57.037 20.5989 57.0753 20.6952 57.0753 20.7722V24.0064Z" fill="white"/>
<path fill-rule="evenodd" clip-rule="evenodd" d="M84.8164 20.6951C85.1226 20.5218 85.2947 20.1946 85.2947 19.848V17.5571C85.2947 17.2106 85.1034 16.8833 84.8164 16.7101L76.7617 12.0128C76.4556 11.8395 76.0921 11.8395 75.786 12.0128L67.6739 16.7293C67.3678 16.9026 67.1765 17.2299 67.1765 17.5764V26.9903C67.1765 27.3368 67.3678 27.6641 67.6739 27.8373L75.7286 32.4576C76.0347 32.6309 76.3982 32.6309 76.6852 32.4576L81.5639 29.724C81.717 29.647 81.8127 29.4737 81.8127 29.3004C81.8127 29.1272 81.717 28.9539 81.5639 28.8769L73.4136 24.1603C73.2605 24.0641 73.1649 23.9101 73.1649 23.7368V20.7914C73.1649 20.6181 73.2605 20.4448 73.4136 20.3678L75.9582 18.9047C76.1113 18.8085 76.3026 18.8085 76.4556 18.9047L79.0002 20.3678C79.1533 20.4641 79.2489 20.6181 79.2489 20.7914V23.1015C79.2489 23.2748 79.3446 23.448 79.4977 23.525C79.6507 23.6213 79.842 23.6213 79.9951 23.525L84.8164 20.6951Z" fill="white"/>
<path fill-rule="evenodd" clip-rule="evenodd" d="M76.1497 20.2525C76.2071 20.214 76.2837 20.214 76.3411 20.2525L77.8908 21.1573C77.9482 21.1958 77.9864 21.2536 77.9864 21.3306V23.1402C77.9864 23.2172 77.9482 23.275 77.8908 23.3135L76.3411 24.2183C76.2837 24.2568 76.2071 24.2568 76.1497 24.2183L74.6 23.3135C74.5426 23.275 74.5044 23.2172 74.5044 23.1402V21.3306C74.5044 21.2536 74.5426 21.1958 74.6 21.1573L76.1497 20.2525Z" fill="#5FA04E"/>
<path d="M32.3941 12.0513C32.0879 11.8781 31.7244 11.8781 31.4183 12.0513L23.3636 16.7294C23.0575 16.9027 22.8853 17.2299 22.8853 17.5765V26.9518C22.8853 27.2984 23.0766 27.6256 23.3636 27.7989L31.4183 32.477C31.7244 32.6502 32.0879 32.6502 32.3941 32.477L40.4487 27.7989C40.7549 27.6256 40.927 27.2984 40.927 26.9518V17.5765C40.927 17.2299 40.7357 16.9027 40.4487 16.7294L32.3941 12.0513Z" fill="url(#paint0_linear_3_201)"/>
<path d="M40.4679 16.7294L32.375 12.0513C32.2985 12.0128 32.2028 11.9743 32.1263 11.9551L23.0576 27.5679C23.1341 27.6641 23.2298 27.7411 23.3254 27.7989L31.4184 32.477C31.648 32.6117 31.9158 32.6502 32.1645 32.5732L40.6784 16.9027C40.621 16.8257 40.5445 16.7679 40.4679 16.7294Z" fill="url(#paint1_linear_3_201)"/>
<path d="M40.4681 27.7986C40.6977 27.6638 40.8699 27.4328 40.9464 27.1825L32.0881 11.9355C31.8586 11.897 31.6098 11.9162 31.3994 12.051L23.3638 16.7098L32.0307 32.6114C32.1455 32.5921 32.2795 32.5536 32.3943 32.4959L40.4681 27.7986Z" fill="url(#paint2_linear_3_201)"/>
</g>
<defs>
<linearGradient id="paint0_linear_3_201" x1="35.1866" y1="15.5354" x2="27.8308" y2="30.4484" gradientUnits="userSpaceOnUse">
<stop stop-color="#3F873F"/>
<stop offset="0.3296" stop-color="#3F8B3D"/>
<stop offset="0.6367" stop-color="#3E9638"/>
<stop offset="0.9341" stop-color="#3DA92E"/>
<stop offset="1" stop-color="#3DAE2B"/>
</linearGradient>
<linearGradient id="paint1_linear_3_201" x1="30.6821" y1="23.3589" x2="51.2061" y2="8.28839" gradientUnits="userSpaceOnUse">
<stop offset="0.1376" stop-color="#3F873F"/>
<stop offset="0.4016" stop-color="#52A044"/>
<stop offset="0.7129" stop-color="#64B749"/>
<stop offset="0.9081" stop-color="#6ABF4B"/>
</linearGradient>
<linearGradient id="paint2_linear_3_201" x1="22.5902" y1="22.2608" x2="41.2283" y2="22.2608" gradientUnits="userSpaceOnUse">
<stop offset="0.0919165" stop-color="#6ABF4B"/>
<stop offset="0.2871" stop-color="#64B749"/>
<stop offset="0.5984" stop-color="#52A044"/>
<stop offset="0.8624" stop-color="#3F873F"/>
</linearGradient>
</defs>
</svg>
