<svg width="304" height="213" viewBox="0 0 304 213" fill="none" xmlns="http://www.w3.org/2000/svg">
<rect x="141" y="59" width="95" height="153" stroke="#87B7FF" stroke-width="2"/>
<rect x="155" y="1" width="148" height="148" stroke="#DDDDDD" stroke-width="2"/>
<circle cx="192" cy="175" r="1" fill="#D9D9D9"/>
<circle cx="192" cy="181" r="1" fill="#D9D9D9"/>
<circle cx="192" cy="187" r="1" fill="#D9D9D9"/>
<circle cx="192" cy="193" r="1" fill="#D9D9D9"/>
<circle cx="192" cy="199" r="1" fill="#D9D9D9"/>
<circle cx="192" cy="205" r="1" fill="#D9D9D9"/>
<circle cx="198" cy="175" r="1" fill="#D9D9D9"/>
<circle cx="198" cy="181" r="1" fill="#D9D9D9"/>
<circle cx="198" cy="187" r="1" fill="#D9D9D9"/>
<circle cx="198" cy="193" r="1" fill="#D9D9D9"/>
<circle cx="198" cy="199" r="1" fill="#D9D9D9"/>
<circle cx="198" cy="205" r="1" fill="#D9D9D9"/>
<circle cx="204" cy="175" r="1" fill="#D9D9D9"/>
<circle cx="204" cy="181" r="1" fill="#D9D9D9"/>
<circle cx="204" cy="187" r="1" fill="#D9D9D9"/>
<circle cx="204" cy="193" r="1" fill="#D9D9D9"/>
<circle cx="204" cy="199" r="1" fill="#D9D9D9"/>
<circle cx="204" cy="205" r="1" fill="#D9D9D9"/>
<circle cx="210" cy="175" r="1" fill="#D9D9D9"/>
<circle cx="210" cy="181" r="1" fill="#D9D9D9"/>
<circle cx="210" cy="187" r="1" fill="#D9D9D9"/>
<circle cx="210" cy="193" r="1" fill="#D9D9D9"/>
<circle cx="210" cy="199" r="1" fill="#D9D9D9"/>
<circle cx="210" cy="205" r="1" fill="#D9D9D9"/>
<circle cx="216" cy="175" r="1" fill="#D9D9D9"/>
<circle cx="216" cy="181" r="1" fill="#D9D9D9"/>
<circle cx="216" cy="187" r="1" fill="#D9D9D9"/>
<circle cx="216" cy="193" r="1" fill="#D9D9D9"/>
<circle cx="216" cy="199" r="1" fill="#D9D9D9"/>
<circle cx="216" cy="205" r="1" fill="#D9D9D9"/>
<circle cx="222" cy="175" r="1" fill="#D9D9D9"/>
<circle cx="222" cy="181" r="1" fill="#D9D9D9"/>
<circle cx="222" cy="187" r="1" fill="#D9D9D9"/>
<circle cx="222" cy="193" r="1" fill="#D9D9D9"/>
<circle cx="222" cy="199" r="1" fill="#D9D9D9"/>
<circle cx="222" cy="205" r="1" fill="#D9D9D9"/>
<circle cx="228" cy="175" r="1" fill="#D9D9D9"/>
<circle cx="228" cy="181" r="1" fill="#D9D9D9"/>
<circle cx="228" cy="187" r="1" fill="#D9D9D9"/>
<circle cx="228" cy="193" r="1" fill="#D9D9D9"/>
<circle cx="228" cy="199" r="1" fill="#D9D9D9"/>
<circle cx="228" cy="205" r="1" fill="#D9D9D9"/>
<circle cx="192" cy="175" r="1" fill="#D9D9D9"/>
<circle cx="192" cy="181" r="1" fill="#D9D9D9"/>
<circle cx="192" cy="187" r="1" fill="#D9D9D9"/>
<circle cx="192" cy="193" r="1" fill="#D9D9D9"/>
<circle cx="192" cy="199" r="1" fill="#D9D9D9"/>
<circle cx="192" cy="205" r="1" fill="#D9D9D9"/>
<circle cx="198" cy="175" r="1" fill="#D9D9D9"/>
<circle cx="198" cy="181" r="1" fill="#D9D9D9"/>
<circle cx="198" cy="187" r="1" fill="#D9D9D9"/>
<circle cx="198" cy="193" r="1" fill="#D9D9D9"/>
<circle cx="198" cy="199" r="1" fill="#D9D9D9"/>
<circle cx="198" cy="205" r="1" fill="#D9D9D9"/>
<circle cx="204" cy="175" r="1" fill="#D9D9D9"/>
<circle cx="204" cy="181" r="1" fill="#D9D9D9"/>
<circle cx="204" cy="187" r="1" fill="#D9D9D9"/>
<circle cx="204" cy="193" r="1" fill="#D9D9D9"/>
<circle cx="204" cy="199" r="1" fill="#D9D9D9"/>
<circle cx="204" cy="205" r="1" fill="#D9D9D9"/>
<circle cx="210" cy="175" r="1" fill="#D9D9D9"/>
<circle cx="210" cy="181" r="1" fill="#D9D9D9"/>
<circle cx="210" cy="187" r="1" fill="#D9D9D9"/>
<circle cx="210" cy="193" r="1" fill="#D9D9D9"/>
<circle cx="210" cy="199" r="1" fill="#D9D9D9"/>
<circle cx="210" cy="205" r="1" fill="#D9D9D9"/>
<circle cx="216" cy="175" r="1" fill="#D9D9D9"/>
<circle cx="216" cy="181" r="1" fill="#D9D9D9"/>
<circle cx="216" cy="187" r="1" fill="#D9D9D9"/>
<circle cx="216" cy="193" r="1" fill="#D9D9D9"/>
<circle cx="216" cy="199" r="1" fill="#D9D9D9"/>
<circle cx="216" cy="205" r="1" fill="#D9D9D9"/>
<circle cx="222" cy="175" r="1" fill="#D9D9D9"/>
<circle cx="222" cy="181" r="1" fill="#D9D9D9"/>
<circle cx="222" cy="187" r="1" fill="#D9D9D9"/>
<circle cx="222" cy="193" r="1" fill="#D9D9D9"/>
<circle cx="222" cy="199" r="1" fill="#D9D9D9"/>
<circle cx="222" cy="205" r="1" fill="#D9D9D9"/>
<circle cx="228" cy="175" r="1" fill="#D9D9D9"/>
<circle cx="228" cy="181" r="1" fill="#D9D9D9"/>
<circle cx="228" cy="187" r="1" fill="#D9D9D9"/>
<circle cx="228" cy="193" r="1" fill="#D9D9D9"/>
<circle cx="228" cy="199" r="1" fill="#D9D9D9"/>
<circle cx="228" cy="205" r="1" fill="#D9D9D9"/>
<circle cx="45" cy="92" r="1" fill="#87B7FF"/>
<circle cx="45" cy="98" r="1" fill="#87B7FF"/>
<circle cx="45" cy="104" r="1" fill="#87B7FF"/>
<circle cx="45" cy="110" r="1" fill="#87B7FF"/>
<circle cx="45" cy="116" r="1" fill="#87B7FF"/>
<circle cx="45" cy="122" r="1" fill="#87B7FF"/>
<circle cx="51" cy="92" r="1" fill="#87B7FF"/>
<circle cx="51" cy="98" r="1" fill="#87B7FF"/>
<circle cx="51" cy="104" r="1" fill="#87B7FF"/>
<circle cx="51" cy="110" r="1" fill="#87B7FF"/>
<circle cx="51" cy="116" r="1" fill="#87B7FF"/>
<circle cx="51" cy="122" r="1" fill="#87B7FF"/>
<circle cx="57" cy="92" r="1" fill="#87B7FF"/>
<circle cx="57" cy="98" r="1" fill="#87B7FF"/>
<circle cx="57" cy="104" r="1" fill="#87B7FF"/>
<circle cx="57" cy="110" r="1" fill="#87B7FF"/>
<circle cx="57" cy="116" r="1" fill="#87B7FF"/>
<circle cx="57" cy="122" r="1" fill="#87B7FF"/>
<circle cx="63" cy="92" r="1" fill="#87B7FF"/>
<circle cx="63" cy="98" r="1" fill="#87B7FF"/>
<circle cx="63" cy="104" r="1" fill="#87B7FF"/>
<circle cx="63" cy="110" r="1" fill="#87B7FF"/>
<circle cx="63" cy="116" r="1" fill="#87B7FF"/>
<circle cx="63" cy="122" r="1" fill="#87B7FF"/>
<circle cx="69" cy="92" r="1" fill="#87B7FF"/>
<circle cx="69" cy="98" r="1" fill="#87B7FF"/>
<circle cx="69" cy="104" r="1" fill="#87B7FF"/>
<circle cx="69" cy="110" r="1" fill="#87B7FF"/>
<circle cx="69" cy="116" r="1" fill="#87B7FF"/>
<circle cx="69" cy="122" r="1" fill="#87B7FF"/>
<circle cx="75" cy="92" r="1" fill="#87B7FF"/>
<circle cx="75" cy="98" r="1" fill="#87B7FF"/>
<circle cx="75" cy="104" r="1" fill="#87B7FF"/>
<circle cx="75" cy="110" r="1" fill="#87B7FF"/>
<circle cx="75" cy="116" r="1" fill="#87B7FF"/>
<circle cx="75" cy="122" r="1" fill="#87B7FF"/>
<circle cx="81" cy="92" r="1" fill="#87B7FF"/>
<circle cx="81" cy="98" r="1" fill="#87B7FF"/>
<circle cx="81" cy="104" r="1" fill="#87B7FF"/>
<circle cx="81" cy="110" r="1" fill="#87B7FF"/>
<circle cx="81" cy="116" r="1" fill="#87B7FF"/>
<circle cx="81" cy="122" r="1" fill="#87B7FF"/>
<circle cx="45" cy="92" r="1" fill="#87B7FF"/>
<circle cx="45" cy="98" r="1" fill="#87B7FF"/>
<circle cx="45" cy="104" r="1" fill="#87B7FF"/>
<circle cx="45" cy="110" r="1" fill="#87B7FF"/>
<circle cx="45" cy="116" r="1" fill="#87B7FF"/>
<circle cx="45" cy="122" r="1" fill="#87B7FF"/>
<circle cx="51" cy="92" r="1" fill="#87B7FF"/>
<circle cx="51" cy="98" r="1" fill="#87B7FF"/>
<circle cx="51" cy="104" r="1" fill="#87B7FF"/>
<circle cx="51" cy="110" r="1" fill="#87B7FF"/>
<circle cx="51" cy="116" r="1" fill="#87B7FF"/>
<circle cx="51" cy="122" r="1" fill="#87B7FF"/>
<circle cx="57" cy="92" r="1" fill="#87B7FF"/>
<circle cx="57" cy="98" r="1" fill="#87B7FF"/>
<circle cx="57" cy="104" r="1" fill="#87B7FF"/>
<circle cx="57" cy="110" r="1" fill="#87B7FF"/>
<circle cx="57" cy="116" r="1" fill="#87B7FF"/>
<circle cx="57" cy="122" r="1" fill="#87B7FF"/>
<circle cx="63" cy="92" r="1" fill="#87B7FF"/>
<circle cx="63" cy="98" r="1" fill="#87B7FF"/>
<circle cx="63" cy="104" r="1" fill="#87B7FF"/>
<circle cx="63" cy="110" r="1" fill="#87B7FF"/>
<circle cx="63" cy="116" r="1" fill="#87B7FF"/>
<circle cx="63" cy="122" r="1" fill="#87B7FF"/>
<circle cx="69" cy="92" r="1" fill="#87B7FF"/>
<circle cx="69" cy="98" r="1" fill="#87B7FF"/>
<circle cx="69" cy="104" r="1" fill="#87B7FF"/>
<circle cx="69" cy="110" r="1" fill="#87B7FF"/>
<circle cx="69" cy="116" r="1" fill="#87B7FF"/>
<circle cx="69" cy="122" r="1" fill="#87B7FF"/>
<circle cx="75" cy="92" r="1" fill="#87B7FF"/>
<circle cx="75" cy="98" r="1" fill="#87B7FF"/>
<circle cx="75" cy="104" r="1" fill="#87B7FF"/>
<circle cx="75" cy="110" r="1" fill="#87B7FF"/>
<circle cx="75" cy="116" r="1" fill="#87B7FF"/>
<circle cx="75" cy="122" r="1" fill="#87B7FF"/>
<circle cx="81" cy="92" r="1" fill="#87B7FF"/>
<circle cx="81" cy="98" r="1" fill="#87B7FF"/>
<circle cx="81" cy="104" r="1" fill="#87B7FF"/>
<circle cx="81" cy="110" r="1" fill="#87B7FF"/>
<circle cx="81" cy="116" r="1" fill="#87B7FF"/>
<circle cx="81" cy="122" r="1" fill="#87B7FF"/>
<circle cx="45" cy="92" r="1" fill="#87B7FF"/>
<circle cx="45" cy="98" r="1" fill="#87B7FF"/>
<circle cx="45" cy="104" r="1" fill="#87B7FF"/>
<circle cx="45" cy="110" r="1" fill="#87B7FF"/>
<circle cx="45" cy="116" r="1" fill="#87B7FF"/>
<circle cx="45" cy="122" r="1" fill="#87B7FF"/>
<circle cx="51" cy="92" r="1" fill="#87B7FF"/>
<circle cx="51" cy="98" r="1" fill="#87B7FF"/>
<circle cx="51" cy="104" r="1" fill="#87B7FF"/>
<circle cx="51" cy="110" r="1" fill="#87B7FF"/>
<circle cx="51" cy="116" r="1" fill="#87B7FF"/>
<circle cx="51" cy="122" r="1" fill="#87B7FF"/>
<circle cx="57" cy="92" r="1" fill="#87B7FF"/>
<circle cx="57" cy="98" r="1" fill="#87B7FF"/>
<circle cx="57" cy="104" r="1" fill="#87B7FF"/>
<circle cx="57" cy="110" r="1" fill="#87B7FF"/>
<circle cx="57" cy="116" r="1" fill="#87B7FF"/>
<circle cx="57" cy="122" r="1" fill="#87B7FF"/>
<circle cx="63" cy="92" r="1" fill="#87B7FF"/>
<circle cx="63" cy="98" r="1" fill="#87B7FF"/>
<circle cx="63" cy="104" r="1" fill="#87B7FF"/>
<circle cx="63" cy="110" r="1" fill="#87B7FF"/>
<circle cx="63" cy="116" r="1" fill="#87B7FF"/>
<circle cx="63" cy="122" r="1" fill="#87B7FF"/>
<circle cx="69" cy="92" r="1" fill="#87B7FF"/>
<circle cx="69" cy="98" r="1" fill="#87B7FF"/>
<circle cx="69" cy="104" r="1" fill="#87B7FF"/>
<circle cx="69" cy="110" r="1" fill="#87B7FF"/>
<circle cx="69" cy="116" r="1" fill="#87B7FF"/>
<circle cx="69" cy="122" r="1" fill="#87B7FF"/>
<circle cx="75" cy="92" r="1" fill="#87B7FF"/>
<circle cx="75" cy="98" r="1" fill="#87B7FF"/>
<circle cx="75" cy="104" r="1" fill="#87B7FF"/>
<circle cx="75" cy="110" r="1" fill="#87B7FF"/>
<circle cx="75" cy="116" r="1" fill="#87B7FF"/>
<circle cx="75" cy="122" r="1" fill="#87B7FF"/>
<circle cx="81" cy="92" r="1" fill="#87B7FF"/>
<circle cx="81" cy="98" r="1" fill="#87B7FF"/>
<circle cx="81" cy="104" r="1" fill="#87B7FF"/>
<circle cx="81" cy="110" r="1" fill="#87B7FF"/>
<circle cx="81" cy="116" r="1" fill="#87B7FF"/>
<circle cx="81" cy="122" r="1" fill="#87B7FF"/>
<circle cx="45" cy="92" r="1" fill="#87B7FF"/>
<circle cx="45" cy="98" r="1" fill="#87B7FF"/>
<circle cx="45" cy="104" r="1" fill="#87B7FF"/>
<circle cx="45" cy="110" r="1" fill="#87B7FF"/>
<circle cx="45" cy="116" r="1" fill="#87B7FF"/>
<circle cx="45" cy="122" r="1" fill="#87B7FF"/>
<circle cx="51" cy="92" r="1" fill="#87B7FF"/>
<circle cx="51" cy="98" r="1" fill="#87B7FF"/>
<circle cx="51" cy="104" r="1" fill="#87B7FF"/>
<circle cx="51" cy="110" r="1" fill="#87B7FF"/>
<circle cx="51" cy="116" r="1" fill="#87B7FF"/>
<circle cx="51" cy="122" r="1" fill="#87B7FF"/>
<circle cx="57" cy="92" r="1" fill="#87B7FF"/>
<circle cx="57" cy="98" r="1" fill="#87B7FF"/>
<circle cx="57" cy="104" r="1" fill="#87B7FF"/>
<circle cx="57" cy="110" r="1" fill="#87B7FF"/>
<circle cx="57" cy="116" r="1" fill="#87B7FF"/>
<circle cx="57" cy="122" r="1" fill="#87B7FF"/>
<circle cx="63" cy="92" r="1" fill="#87B7FF"/>
<circle cx="63" cy="98" r="1" fill="#87B7FF"/>
<circle cx="63" cy="104" r="1" fill="#87B7FF"/>
<circle cx="63" cy="110" r="1" fill="#87B7FF"/>
<circle cx="63" cy="116" r="1" fill="#87B7FF"/>
<circle cx="63" cy="122" r="1" fill="#87B7FF"/>
<circle cx="69" cy="92" r="1" fill="#87B7FF"/>
<circle cx="69" cy="98" r="1" fill="#87B7FF"/>
<circle cx="69" cy="104" r="1" fill="#87B7FF"/>
<circle cx="69" cy="110" r="1" fill="#87B7FF"/>
<circle cx="69" cy="116" r="1" fill="#87B7FF"/>
<circle cx="69" cy="122" r="1" fill="#87B7FF"/>
<circle cx="75" cy="92" r="1" fill="#87B7FF"/>
<circle cx="75" cy="98" r="1" fill="#87B7FF"/>
<circle cx="75" cy="104" r="1" fill="#87B7FF"/>
<circle cx="75" cy="110" r="1" fill="#87B7FF"/>
<circle cx="75" cy="116" r="1" fill="#87B7FF"/>
<circle cx="75" cy="122" r="1" fill="#87B7FF"/>
<circle cx="81" cy="92" r="1" fill="#87B7FF"/>
<circle cx="81" cy="98" r="1" fill="#87B7FF"/>
<circle cx="81" cy="104" r="1" fill="#87B7FF"/>
<circle cx="81" cy="110" r="1" fill="#87B7FF"/>
<circle cx="81" cy="116" r="1" fill="#87B7FF"/>
<circle cx="81" cy="122" r="1" fill="#87B7FF"/>
<circle cx="45" cy="148" r="1" fill="#87B7FF"/>
<circle cx="45" cy="154" r="1" fill="#87B7FF"/>
<circle cx="45" cy="160" r="1" fill="#87B7FF"/>
<circle cx="45" cy="166" r="1" fill="#87B7FF"/>
<circle cx="45" cy="172" r="1" fill="#87B7FF"/>
<circle cx="45" cy="178" r="1" fill="#87B7FF"/>
<circle cx="51" cy="148" r="1" fill="#87B7FF"/>
<circle cx="51" cy="154" r="1" fill="#87B7FF"/>
<circle cx="51" cy="160" r="1" fill="#87B7FF"/>
<circle cx="51" cy="166" r="1" fill="#87B7FF"/>
<circle cx="51" cy="172" r="1" fill="#87B7FF"/>
<circle cx="51" cy="178" r="1" fill="#87B7FF"/>
<circle cx="57" cy="148" r="1" fill="#87B7FF"/>
<circle cx="57" cy="154" r="1" fill="#87B7FF"/>
<circle cx="57" cy="160" r="1" fill="#87B7FF"/>
<circle cx="57" cy="166" r="1" fill="#87B7FF"/>
<circle cx="57" cy="172" r="1" fill="#87B7FF"/>
<circle cx="57" cy="178" r="1" fill="#87B7FF"/>
<circle cx="63" cy="148" r="1" fill="#87B7FF"/>
<circle cx="63" cy="154" r="1" fill="#87B7FF"/>
<circle cx="63" cy="160" r="1" fill="#87B7FF"/>
<circle cx="63" cy="166" r="1" fill="#87B7FF"/>
<circle cx="63" cy="172" r="1" fill="#87B7FF"/>
<circle cx="63" cy="178" r="1" fill="#87B7FF"/>
<circle cx="69" cy="148" r="1" fill="#87B7FF"/>
<circle cx="69" cy="154" r="1" fill="#87B7FF"/>
<circle cx="69" cy="160" r="1" fill="#87B7FF"/>
<circle cx="69" cy="166" r="1" fill="#87B7FF"/>
<circle cx="69" cy="172" r="1" fill="#87B7FF"/>
<circle cx="69" cy="178" r="1" fill="#87B7FF"/>
<circle cx="75" cy="148" r="1" fill="#87B7FF"/>
<circle cx="75" cy="154" r="1" fill="#87B7FF"/>
<circle cx="75" cy="160" r="1" fill="#87B7FF"/>
<circle cx="75" cy="166" r="1" fill="#87B7FF"/>
<circle cx="75" cy="172" r="1" fill="#87B7FF"/>
<circle cx="75" cy="178" r="1" fill="#87B7FF"/>
<circle cx="81" cy="148" r="1" fill="#87B7FF"/>
<circle cx="81" cy="154" r="1" fill="#87B7FF"/>
<circle cx="81" cy="160" r="1" fill="#87B7FF"/>
<circle cx="81" cy="166" r="1" fill="#87B7FF"/>
<circle cx="81" cy="172" r="1" fill="#87B7FF"/>
<circle cx="81" cy="178" r="1" fill="#87B7FF"/>
<circle cx="45" cy="148" r="1" fill="#87B7FF"/>
<circle cx="45" cy="154" r="1" fill="#87B7FF"/>
<circle cx="45" cy="160" r="1" fill="#87B7FF"/>
<circle cx="45" cy="166" r="1" fill="#87B7FF"/>
<circle cx="45" cy="172" r="1" fill="#87B7FF"/>
<circle cx="45" cy="178" r="1" fill="#87B7FF"/>
<circle cx="51" cy="148" r="1" fill="#87B7FF"/>
<circle cx="51" cy="154" r="1" fill="#87B7FF"/>
<circle cx="51" cy="160" r="1" fill="#87B7FF"/>
<circle cx="51" cy="166" r="1" fill="#87B7FF"/>
<circle cx="51" cy="172" r="1" fill="#87B7FF"/>
<circle cx="51" cy="178" r="1" fill="#87B7FF"/>
<circle cx="57" cy="148" r="1" fill="#87B7FF"/>
<circle cx="57" cy="154" r="1" fill="#87B7FF"/>
<circle cx="57" cy="160" r="1" fill="#87B7FF"/>
<circle cx="57" cy="166" r="1" fill="#87B7FF"/>
<circle cx="57" cy="172" r="1" fill="#87B7FF"/>
<circle cx="57" cy="178" r="1" fill="#87B7FF"/>
<circle cx="63" cy="148" r="1" fill="#87B7FF"/>
<circle cx="63" cy="154" r="1" fill="#87B7FF"/>
<circle cx="63" cy="160" r="1" fill="#87B7FF"/>
<circle cx="63" cy="166" r="1" fill="#87B7FF"/>
<circle cx="63" cy="172" r="1" fill="#87B7FF"/>
<circle cx="63" cy="178" r="1" fill="#87B7FF"/>
<circle cx="69" cy="148" r="1" fill="#87B7FF"/>
<circle cx="69" cy="154" r="1" fill="#87B7FF"/>
<circle cx="69" cy="160" r="1" fill="#87B7FF"/>
<circle cx="69" cy="166" r="1" fill="#87B7FF"/>
<circle cx="69" cy="172" r="1" fill="#87B7FF"/>
<circle cx="69" cy="178" r="1" fill="#87B7FF"/>
<circle cx="75" cy="148" r="1" fill="#87B7FF"/>
<circle cx="75" cy="154" r="1" fill="#87B7FF"/>
<circle cx="75" cy="160" r="1" fill="#87B7FF"/>
<circle cx="75" cy="166" r="1" fill="#87B7FF"/>
<circle cx="75" cy="172" r="1" fill="#87B7FF"/>
<circle cx="75" cy="178" r="1" fill="#87B7FF"/>
<circle cx="81" cy="148" r="1" fill="#87B7FF"/>
<circle cx="81" cy="154" r="1" fill="#87B7FF"/>
<circle cx="81" cy="160" r="1" fill="#87B7FF"/>
<circle cx="81" cy="166" r="1" fill="#87B7FF"/>
<circle cx="81" cy="172" r="1" fill="#87B7FF"/>
<circle cx="81" cy="178" r="1" fill="#87B7FF"/>
<circle cx="45" cy="148" r="1" fill="#87B7FF"/>
<circle cx="45" cy="154" r="1" fill="#87B7FF"/>
<circle cx="45" cy="160" r="1" fill="#87B7FF"/>
<circle cx="45" cy="166" r="1" fill="#87B7FF"/>
<circle cx="45" cy="172" r="1" fill="#87B7FF"/>
<circle cx="45" cy="178" r="1" fill="#87B7FF"/>
<circle cx="51" cy="148" r="1" fill="#87B7FF"/>
<circle cx="51" cy="154" r="1" fill="#87B7FF"/>
<circle cx="51" cy="160" r="1" fill="#87B7FF"/>
<circle cx="51" cy="166" r="1" fill="#87B7FF"/>
<circle cx="51" cy="172" r="1" fill="#87B7FF"/>
<circle cx="51" cy="178" r="1" fill="#87B7FF"/>
<circle cx="57" cy="148" r="1" fill="#87B7FF"/>
<circle cx="57" cy="154" r="1" fill="#87B7FF"/>
<circle cx="57" cy="160" r="1" fill="#87B7FF"/>
<circle cx="57" cy="166" r="1" fill="#87B7FF"/>
<circle cx="57" cy="172" r="1" fill="#87B7FF"/>
<circle cx="57" cy="178" r="1" fill="#87B7FF"/>
<circle cx="63" cy="148" r="1" fill="#87B7FF"/>
<circle cx="63" cy="154" r="1" fill="#87B7FF"/>
<circle cx="63" cy="160" r="1" fill="#87B7FF"/>
<circle cx="63" cy="166" r="1" fill="#87B7FF"/>
<circle cx="63" cy="172" r="1" fill="#87B7FF"/>
<circle cx="63" cy="178" r="1" fill="#87B7FF"/>
<circle cx="69" cy="148" r="1" fill="#87B7FF"/>
<circle cx="69" cy="154" r="1" fill="#87B7FF"/>
<circle cx="69" cy="160" r="1" fill="#87B7FF"/>
<circle cx="69" cy="166" r="1" fill="#87B7FF"/>
<circle cx="69" cy="172" r="1" fill="#87B7FF"/>
<circle cx="69" cy="178" r="1" fill="#87B7FF"/>
<circle cx="75" cy="148" r="1" fill="#87B7FF"/>
<circle cx="75" cy="154" r="1" fill="#87B7FF"/>
<circle cx="75" cy="160" r="1" fill="#87B7FF"/>
<circle cx="75" cy="166" r="1" fill="#87B7FF"/>
<circle cx="75" cy="172" r="1" fill="#87B7FF"/>
<circle cx="75" cy="178" r="1" fill="#87B7FF"/>
<circle cx="81" cy="148" r="1" fill="#87B7FF"/>
<circle cx="81" cy="154" r="1" fill="#87B7FF"/>
<circle cx="81" cy="160" r="1" fill="#87B7FF"/>
<circle cx="81" cy="166" r="1" fill="#87B7FF"/>
<circle cx="81" cy="172" r="1" fill="#87B7FF"/>
<circle cx="81" cy="178" r="1" fill="#87B7FF"/>
<circle cx="45" cy="148" r="1" fill="#87B7FF"/>
<circle cx="45" cy="154" r="1" fill="#87B7FF"/>
<circle cx="45" cy="160" r="1" fill="#87B7FF"/>
<circle cx="45" cy="166" r="1" fill="#87B7FF"/>
<circle cx="45" cy="172" r="1" fill="#87B7FF"/>
<circle cx="45" cy="178" r="1" fill="#87B7FF"/>
<circle cx="51" cy="148" r="1" fill="#87B7FF"/>
<circle cx="51" cy="154" r="1" fill="#87B7FF"/>
<circle cx="51" cy="160" r="1" fill="#87B7FF"/>
<circle cx="51" cy="166" r="1" fill="#87B7FF"/>
<circle cx="51" cy="172" r="1" fill="#87B7FF"/>
<circle cx="51" cy="178" r="1" fill="#87B7FF"/>
<circle cx="57" cy="148" r="1" fill="#87B7FF"/>
<circle cx="57" cy="154" r="1" fill="#87B7FF"/>
<circle cx="57" cy="160" r="1" fill="#87B7FF"/>
<circle cx="57" cy="166" r="1" fill="#87B7FF"/>
<circle cx="57" cy="172" r="1" fill="#87B7FF"/>
<circle cx="57" cy="178" r="1" fill="#87B7FF"/>
<circle cx="63" cy="148" r="1" fill="#87B7FF"/>
<circle cx="63" cy="154" r="1" fill="#87B7FF"/>
<circle cx="63" cy="160" r="1" fill="#87B7FF"/>
<circle cx="63" cy="166" r="1" fill="#87B7FF"/>
<circle cx="63" cy="172" r="1" fill="#87B7FF"/>
<circle cx="63" cy="178" r="1" fill="#87B7FF"/>
<circle cx="69" cy="148" r="1" fill="#87B7FF"/>
<circle cx="69" cy="154" r="1" fill="#87B7FF"/>
<circle cx="69" cy="160" r="1" fill="#87B7FF"/>
<circle cx="69" cy="166" r="1" fill="#87B7FF"/>
<circle cx="69" cy="172" r="1" fill="#87B7FF"/>
<circle cx="69" cy="178" r="1" fill="#87B7FF"/>
<circle cx="75" cy="148" r="1" fill="#87B7FF"/>
<circle cx="75" cy="154" r="1" fill="#87B7FF"/>
<circle cx="75" cy="160" r="1" fill="#87B7FF"/>
<circle cx="75" cy="166" r="1" fill="#87B7FF"/>
<circle cx="75" cy="172" r="1" fill="#87B7FF"/>
<circle cx="75" cy="178" r="1" fill="#87B7FF"/>
<circle cx="81" cy="148" r="1" fill="#87B7FF"/>
<circle cx="81" cy="154" r="1" fill="#87B7FF"/>
<circle cx="81" cy="160" r="1" fill="#87B7FF"/>
<circle cx="81" cy="166" r="1" fill="#87B7FF"/>
<circle cx="81" cy="172" r="1" fill="#87B7FF"/>
<circle cx="81" cy="178" r="1" fill="#87B7FF"/>
<circle cx="89" cy="56" r="1" fill="#DDDDDD"/>
<circle cx="89" cy="62" r="1" fill="#DDDDDD"/>
<circle cx="89" cy="68" r="1" fill="#DDDDDD"/>
<circle cx="89" cy="74" r="1" fill="#DDDDDD"/>
<circle cx="89" cy="80" r="1" fill="#DDDDDD"/>
<circle cx="89" cy="86" r="1" fill="#DDDDDD"/>
<circle cx="95" cy="56" r="1" fill="#DDDDDD"/>
<circle cx="95" cy="62" r="1" fill="#DDDDDD"/>
<circle cx="95" cy="68" r="1" fill="#DDDDDD"/>
<circle cx="95" cy="74" r="1" fill="#DDDDDD"/>
<circle cx="95" cy="80" r="1" fill="#DDDDDD"/>
<circle cx="95" cy="86" r="1" fill="#DDDDDD"/>
<circle cx="101" cy="56" r="1" fill="#DDDDDD"/>
<circle cx="101" cy="62" r="1" fill="#DDDDDD"/>
<circle cx="101" cy="68" r="1" fill="#DDDDDD"/>
<circle cx="101" cy="74" r="1" fill="#DDDDDD"/>
<circle cx="101" cy="80" r="1" fill="#DDDDDD"/>
<circle cx="101" cy="86" r="1" fill="#DDDDDD"/>
<circle cx="107" cy="56" r="1" fill="#DDDDDD"/>
<circle cx="107" cy="62" r="1" fill="#DDDDDD"/>
<circle cx="107" cy="68" r="1" fill="#DDDDDD"/>
<circle cx="107" cy="74" r="1" fill="#DDDDDD"/>
<circle cx="107" cy="80" r="1" fill="#DDDDDD"/>
<circle cx="107" cy="86" r="1" fill="#DDDDDD"/>
<circle cx="113" cy="56" r="1" fill="#DDDDDD"/>
<circle cx="113" cy="62" r="1" fill="#DDDDDD"/>
<circle cx="113" cy="68" r="1" fill="#DDDDDD"/>
<circle cx="113" cy="74" r="1" fill="#DDDDDD"/>
<circle cx="113" cy="80" r="1" fill="#DDDDDD"/>
<circle cx="113" cy="86" r="1" fill="#DDDDDD"/>
<circle cx="119" cy="56" r="1" fill="#DDDDDD"/>
<circle cx="119" cy="62" r="1" fill="#DDDDDD"/>
<circle cx="119" cy="68" r="1" fill="#DDDDDD"/>
<circle cx="119" cy="74" r="1" fill="#DDDDDD"/>
<circle cx="119" cy="80" r="1" fill="#DDDDDD"/>
<circle cx="119" cy="86" r="1" fill="#DDDDDD"/>
<circle cx="125" cy="56" r="1" fill="#DDDDDD"/>
<circle cx="125" cy="62" r="1" fill="#DDDDDD"/>
<circle cx="125" cy="68" r="1" fill="#DDDDDD"/>
<circle cx="125" cy="74" r="1" fill="#DDDDDD"/>
<circle cx="125" cy="80" r="1" fill="#DDDDDD"/>
<circle cx="125" cy="86" r="1" fill="#DDDDDD"/>
<circle cx="89" cy="56" r="1" fill="#DDDDDD"/>
<circle cx="89" cy="62" r="1" fill="#DDDDDD"/>
<circle cx="89" cy="68" r="1" fill="#DDDDDD"/>
<circle cx="89" cy="74" r="1" fill="#DDDDDD"/>
<circle cx="89" cy="80" r="1" fill="#DDDDDD"/>
<circle cx="89" cy="86" r="1" fill="#DDDDDD"/>
<circle cx="95" cy="56" r="1" fill="#DDDDDD"/>
<circle cx="95" cy="62" r="1" fill="#DDDDDD"/>
<circle cx="95" cy="68" r="1" fill="#DDDDDD"/>
<circle cx="95" cy="74" r="1" fill="#DDDDDD"/>
<circle cx="95" cy="80" r="1" fill="#DDDDDD"/>
<circle cx="95" cy="86" r="1" fill="#DDDDDD"/>
<circle cx="101" cy="56" r="1" fill="#DDDDDD"/>
<circle cx="101" cy="62" r="1" fill="#DDDDDD"/>
<circle cx="101" cy="68" r="1" fill="#DDDDDD"/>
<circle cx="101" cy="74" r="1" fill="#DDDDDD"/>
<circle cx="101" cy="80" r="1" fill="#DDDDDD"/>
<circle cx="101" cy="86" r="1" fill="#DDDDDD"/>
<circle cx="107" cy="56" r="1" fill="#DDDDDD"/>
<circle cx="107" cy="62" r="1" fill="#DDDDDD"/>
<circle cx="107" cy="68" r="1" fill="#DDDDDD"/>
<circle cx="107" cy="74" r="1" fill="#DDDDDD"/>
<circle cx="107" cy="80" r="1" fill="#DDDDDD"/>
<circle cx="107" cy="86" r="1" fill="#DDDDDD"/>
<circle cx="113" cy="56" r="1" fill="#DDDDDD"/>
<circle cx="113" cy="62" r="1" fill="#DDDDDD"/>
<circle cx="113" cy="68" r="1" fill="#DDDDDD"/>
<circle cx="113" cy="74" r="1" fill="#DDDDDD"/>
<circle cx="113" cy="80" r="1" fill="#DDDDDD"/>
<circle cx="113" cy="86" r="1" fill="#DDDDDD"/>
<circle cx="119" cy="56" r="1" fill="#DDDDDD"/>
<circle cx="119" cy="62" r="1" fill="#DDDDDD"/>
<circle cx="119" cy="68" r="1" fill="#DDDDDD"/>
<circle cx="119" cy="74" r="1" fill="#DDDDDD"/>
<circle cx="119" cy="80" r="1" fill="#DDDDDD"/>
<circle cx="119" cy="86" r="1" fill="#DDDDDD"/>
<circle cx="125" cy="56" r="1" fill="#DDDDDD"/>
<circle cx="125" cy="62" r="1" fill="#DDDDDD"/>
<circle cx="125" cy="68" r="1" fill="#DDDDDD"/>
<circle cx="125" cy="74" r="1" fill="#DDDDDD"/>
<circle cx="125" cy="80" r="1" fill="#DDDDDD"/>
<circle cx="125" cy="86" r="1" fill="#DDDDDD"/>
<circle cx="1" cy="56" r="1" fill="#DDDDDD"/>
<circle cx="1" cy="62" r="1" fill="#DDDDDD"/>
<circle cx="1" cy="68" r="1" fill="#DDDDDD"/>
<circle cx="1" cy="74" r="1" fill="#DDDDDD"/>
<circle cx="1" cy="80" r="1" fill="#DDDDDD"/>
<circle cx="1" cy="86" r="1" fill="#DDDDDD"/>
<circle cx="7" cy="56" r="1" fill="#DDDDDD"/>
<circle cx="7" cy="62" r="1" fill="#DDDDDD"/>
<circle cx="7" cy="68" r="1" fill="#DDDDDD"/>
<circle cx="7" cy="74" r="1" fill="#DDDDDD"/>
<circle cx="7" cy="80" r="1" fill="#DDDDDD"/>
<circle cx="7" cy="86" r="1" fill="#DDDDDD"/>
<circle cx="13" cy="56" r="1" fill="#DDDDDD"/>
<circle cx="13" cy="62" r="1" fill="#DDDDDD"/>
<circle cx="13" cy="68" r="1" fill="#DDDDDD"/>
<circle cx="13" cy="74" r="1" fill="#DDDDDD"/>
<circle cx="13" cy="80" r="1" fill="#DDDDDD"/>
<circle cx="13" cy="86" r="1" fill="#DDDDDD"/>
<circle cx="19" cy="56" r="1" fill="#DDDDDD"/>
<circle cx="19" cy="62" r="1" fill="#DDDDDD"/>
<circle cx="19" cy="68" r="1" fill="#DDDDDD"/>
<circle cx="19" cy="74" r="1" fill="#DDDDDD"/>
<circle cx="19" cy="80" r="1" fill="#DDDDDD"/>
<circle cx="19" cy="86" r="1" fill="#DDDDDD"/>
<circle cx="25" cy="56" r="1" fill="#DDDDDD"/>
<circle cx="25" cy="62" r="1" fill="#DDDDDD"/>
<circle cx="25" cy="68" r="1" fill="#DDDDDD"/>
<circle cx="25" cy="74" r="1" fill="#DDDDDD"/>
<circle cx="25" cy="80" r="1" fill="#DDDDDD"/>
<circle cx="25" cy="86" r="1" fill="#DDDDDD"/>
<circle cx="31" cy="56" r="1" fill="#DDDDDD"/>
<circle cx="31" cy="62" r="1" fill="#DDDDDD"/>
<circle cx="31" cy="68" r="1" fill="#DDDDDD"/>
<circle cx="31" cy="74" r="1" fill="#DDDDDD"/>
<circle cx="31" cy="80" r="1" fill="#DDDDDD"/>
<circle cx="31" cy="86" r="1" fill="#DDDDDD"/>
<circle cx="37" cy="56" r="1" fill="#DDDDDD"/>
<circle cx="37" cy="62" r="1" fill="#DDDDDD"/>
<circle cx="37" cy="68" r="1" fill="#DDDDDD"/>
<circle cx="37" cy="74" r="1" fill="#DDDDDD"/>
<circle cx="37" cy="80" r="1" fill="#DDDDDD"/>
<circle cx="37" cy="86" r="1" fill="#DDDDDD"/>
<circle cx="1" cy="56" r="1" fill="#DDDDDD"/>
<circle cx="1" cy="62" r="1" fill="#DDDDDD"/>
<circle cx="1" cy="68" r="1" fill="#DDDDDD"/>
<circle cx="1" cy="74" r="1" fill="#DDDDDD"/>
<circle cx="1" cy="80" r="1" fill="#DDDDDD"/>
<circle cx="1" cy="86" r="1" fill="#DDDDDD"/>
<circle cx="7" cy="56" r="1" fill="#DDDDDD"/>
<circle cx="7" cy="62" r="1" fill="#DDDDDD"/>
<circle cx="7" cy="68" r="1" fill="#DDDDDD"/>
<circle cx="7" cy="74" r="1" fill="#DDDDDD"/>
<circle cx="7" cy="80" r="1" fill="#DDDDDD"/>
<circle cx="7" cy="86" r="1" fill="#DDDDDD"/>
<circle cx="13" cy="56" r="1" fill="#DDDDDD"/>
<circle cx="13" cy="62" r="1" fill="#DDDDDD"/>
<circle cx="13" cy="68" r="1" fill="#DDDDDD"/>
<circle cx="13" cy="74" r="1" fill="#DDDDDD"/>
<circle cx="13" cy="80" r="1" fill="#DDDDDD"/>
<circle cx="13" cy="86" r="1" fill="#DDDDDD"/>
<circle cx="19" cy="56" r="1" fill="#DDDDDD"/>
<circle cx="19" cy="62" r="1" fill="#DDDDDD"/>
<circle cx="19" cy="68" r="1" fill="#DDDDDD"/>
<circle cx="19" cy="74" r="1" fill="#DDDDDD"/>
<circle cx="19" cy="80" r="1" fill="#DDDDDD"/>
<circle cx="19" cy="86" r="1" fill="#DDDDDD"/>
<circle cx="25" cy="56" r="1" fill="#DDDDDD"/>
<circle cx="25" cy="62" r="1" fill="#DDDDDD"/>
<circle cx="25" cy="68" r="1" fill="#DDDDDD"/>
<circle cx="25" cy="74" r="1" fill="#DDDDDD"/>
<circle cx="25" cy="80" r="1" fill="#DDDDDD"/>
<circle cx="25" cy="86" r="1" fill="#DDDDDD"/>
<circle cx="31" cy="56" r="1" fill="#DDDDDD"/>
<circle cx="31" cy="62" r="1" fill="#DDDDDD"/>
<circle cx="31" cy="68" r="1" fill="#DDDDDD"/>
<circle cx="31" cy="74" r="1" fill="#DDDDDD"/>
<circle cx="31" cy="80" r="1" fill="#DDDDDD"/>
<circle cx="31" cy="86" r="1" fill="#DDDDDD"/>
<circle cx="37" cy="56" r="1" fill="#DDDDDD"/>
<circle cx="37" cy="62" r="1" fill="#DDDDDD"/>
<circle cx="37" cy="68" r="1" fill="#DDDDDD"/>
<circle cx="37" cy="74" r="1" fill="#DDDDDD"/>
<circle cx="37" cy="80" r="1" fill="#DDDDDD"/>
<circle cx="37" cy="86" r="1" fill="#DDDDDD"/>
<circle cx="181" cy="90" r="1" fill="#87B7FF"/>
<circle cx="181" cy="96" r="1" fill="#87B7FF"/>
<circle cx="181" cy="102" r="1" fill="#87B7FF"/>
<circle cx="181" cy="108" r="1" fill="#87B7FF"/>
<circle cx="181" cy="114" r="1" fill="#87B7FF"/>
<circle cx="181" cy="120" r="1" fill="#87B7FF"/>
<circle cx="187" cy="90" r="1" fill="#87B7FF"/>
<circle cx="187" cy="96" r="1" fill="#87B7FF"/>
<circle cx="187" cy="102" r="1" fill="#87B7FF"/>
<circle cx="187" cy="108" r="1" fill="#87B7FF"/>
<circle cx="187" cy="114" r="1" fill="#87B7FF"/>
<circle cx="187" cy="120" r="1" fill="#87B7FF"/>
<circle cx="193" cy="90" r="1" fill="#87B7FF"/>
<circle cx="193" cy="96" r="1" fill="#87B7FF"/>
<circle cx="193" cy="102" r="1" fill="#87B7FF"/>
<circle cx="193" cy="108" r="1" fill="#87B7FF"/>
<circle cx="193" cy="114" r="1" fill="#87B7FF"/>
<circle cx="193" cy="120" r="1" fill="#87B7FF"/>
<circle cx="199" cy="90" r="1" fill="#87B7FF"/>
<circle cx="199" cy="96" r="1" fill="#87B7FF"/>
<circle cx="199" cy="102" r="1" fill="#87B7FF"/>
<circle cx="199" cy="108" r="1" fill="#87B7FF"/>
<circle cx="199" cy="114" r="1" fill="#87B7FF"/>
<circle cx="199" cy="120" r="1" fill="#87B7FF"/>
<circle cx="205" cy="90" r="1" fill="#87B7FF"/>
<circle cx="205" cy="96" r="1" fill="#87B7FF"/>
<circle cx="205" cy="102" r="1" fill="#87B7FF"/>
<circle cx="205" cy="108" r="1" fill="#87B7FF"/>
<circle cx="205" cy="114" r="1" fill="#87B7FF"/>
<circle cx="205" cy="120" r="1" fill="#87B7FF"/>
<circle cx="211" cy="90" r="1" fill="#87B7FF"/>
<circle cx="211" cy="96" r="1" fill="#87B7FF"/>
<circle cx="211" cy="102" r="1" fill="#87B7FF"/>
<circle cx="211" cy="108" r="1" fill="#87B7FF"/>
<circle cx="211" cy="114" r="1" fill="#87B7FF"/>
<circle cx="211" cy="120" r="1" fill="#87B7FF"/>
<circle cx="217" cy="90" r="1" fill="#87B7FF"/>
<circle cx="217" cy="96" r="1" fill="#87B7FF"/>
<circle cx="217" cy="102" r="1" fill="#87B7FF"/>
<circle cx="217" cy="108" r="1" fill="#87B7FF"/>
<circle cx="217" cy="114" r="1" fill="#87B7FF"/>
<circle cx="217" cy="120" r="1" fill="#87B7FF"/>
<circle cx="181" cy="90" r="1" fill="#87B7FF"/>
<circle cx="181" cy="96" r="1" fill="#87B7FF"/>
<circle cx="181" cy="102" r="1" fill="#87B7FF"/>
<circle cx="181" cy="108" r="1" fill="#87B7FF"/>
<circle cx="181" cy="114" r="1" fill="#87B7FF"/>
<circle cx="181" cy="120" r="1" fill="#87B7FF"/>
<circle cx="187" cy="90" r="1" fill="#87B7FF"/>
<circle cx="187" cy="96" r="1" fill="#87B7FF"/>
<circle cx="187" cy="102" r="1" fill="#87B7FF"/>
<circle cx="187" cy="108" r="1" fill="#87B7FF"/>
<circle cx="187" cy="114" r="1" fill="#87B7FF"/>
<circle cx="187" cy="120" r="1" fill="#87B7FF"/>
<circle cx="193" cy="90" r="1" fill="#87B7FF"/>
<circle cx="193" cy="96" r="1" fill="#87B7FF"/>
<circle cx="193" cy="102" r="1" fill="#87B7FF"/>
<circle cx="193" cy="108" r="1" fill="#87B7FF"/>
<circle cx="193" cy="114" r="1" fill="#87B7FF"/>
<circle cx="193" cy="120" r="1" fill="#87B7FF"/>
<circle cx="199" cy="90" r="1" fill="#87B7FF"/>
<circle cx="199" cy="96" r="1" fill="#87B7FF"/>
<circle cx="199" cy="102" r="1" fill="#87B7FF"/>
<circle cx="199" cy="108" r="1" fill="#87B7FF"/>
<circle cx="199" cy="114" r="1" fill="#87B7FF"/>
<circle cx="199" cy="120" r="1" fill="#87B7FF"/>
<circle cx="205" cy="90" r="1" fill="#87B7FF"/>
<circle cx="205" cy="96" r="1" fill="#87B7FF"/>
<circle cx="205" cy="102" r="1" fill="#87B7FF"/>
<circle cx="205" cy="108" r="1" fill="#87B7FF"/>
<circle cx="205" cy="114" r="1" fill="#87B7FF"/>
<circle cx="205" cy="120" r="1" fill="#87B7FF"/>
<circle cx="211" cy="90" r="1" fill="#87B7FF"/>
<circle cx="211" cy="96" r="1" fill="#87B7FF"/>
<circle cx="211" cy="102" r="1" fill="#87B7FF"/>
<circle cx="211" cy="108" r="1" fill="#87B7FF"/>
<circle cx="211" cy="114" r="1" fill="#87B7FF"/>
<circle cx="211" cy="120" r="1" fill="#87B7FF"/>
<circle cx="217" cy="90" r="1" fill="#87B7FF"/>
<circle cx="217" cy="96" r="1" fill="#87B7FF"/>
<circle cx="217" cy="102" r="1" fill="#87B7FF"/>
<circle cx="217" cy="108" r="1" fill="#87B7FF"/>
<circle cx="217" cy="114" r="1" fill="#87B7FF"/>
<circle cx="217" cy="120" r="1" fill="#87B7FF"/>
<circle cx="90" cy="181" r="1" fill="#DDDDDD"/>
<circle cx="90" cy="187" r="1" fill="#DDDDDD"/>
<circle cx="90" cy="193" r="1" fill="#DDDDDD"/>
<circle cx="90" cy="199" r="1" fill="#DDDDDD"/>
<circle cx="90" cy="205" r="1" fill="#DDDDDD"/>
<circle cx="90" cy="211" r="1" fill="#DDDDDD"/>
<circle cx="96" cy="181" r="1" fill="#DDDDDD"/>
<circle cx="96" cy="187" r="1" fill="#DDDDDD"/>
<circle cx="96" cy="193" r="1" fill="#DDDDDD"/>
<circle cx="96" cy="199" r="1" fill="#DDDDDD"/>
<circle cx="96" cy="205" r="1" fill="#DDDDDD"/>
<circle cx="96" cy="211" r="1" fill="#DDDDDD"/>
<circle cx="102" cy="181" r="1" fill="#DDDDDD"/>
<circle cx="102" cy="187" r="1" fill="#DDDDDD"/>
<circle cx="102" cy="193" r="1" fill="#DDDDDD"/>
<circle cx="102" cy="199" r="1" fill="#DDDDDD"/>
<circle cx="102" cy="205" r="1" fill="#DDDDDD"/>
<circle cx="102" cy="211" r="1" fill="#DDDDDD"/>
<circle cx="108" cy="181" r="1" fill="#DDDDDD"/>
<circle cx="108" cy="187" r="1" fill="#DDDDDD"/>
<circle cx="108" cy="193" r="1" fill="#DDDDDD"/>
<circle cx="108" cy="199" r="1" fill="#DDDDDD"/>
<circle cx="108" cy="205" r="1" fill="#DDDDDD"/>
<circle cx="108" cy="211" r="1" fill="#DDDDDD"/>
<circle cx="114" cy="181" r="1" fill="#DDDDDD"/>
<circle cx="114" cy="187" r="1" fill="#DDDDDD"/>
<circle cx="114" cy="193" r="1" fill="#DDDDDD"/>
<circle cx="114" cy="199" r="1" fill="#DDDDDD"/>
<circle cx="114" cy="205" r="1" fill="#DDDDDD"/>
<circle cx="114" cy="211" r="1" fill="#DDDDDD"/>
<circle cx="120" cy="181" r="1" fill="#DDDDDD"/>
<circle cx="120" cy="187" r="1" fill="#DDDDDD"/>
<circle cx="120" cy="193" r="1" fill="#DDDDDD"/>
<circle cx="120" cy="199" r="1" fill="#DDDDDD"/>
<circle cx="120" cy="205" r="1" fill="#DDDDDD"/>
<circle cx="120" cy="211" r="1" fill="#DDDDDD"/>
<circle cx="126" cy="181" r="1" fill="#DDDDDD"/>
<circle cx="126" cy="187" r="1" fill="#DDDDDD"/>
<circle cx="126" cy="193" r="1" fill="#DDDDDD"/>
<circle cx="126" cy="199" r="1" fill="#DDDDDD"/>
<circle cx="126" cy="205" r="1" fill="#DDDDDD"/>
<circle cx="126" cy="211" r="1" fill="#DDDDDD"/>
<circle cx="90" cy="181" r="1" fill="#DDDDDD"/>
<circle cx="90" cy="187" r="1" fill="#DDDDDD"/>
<circle cx="90" cy="193" r="1" fill="#DDDDDD"/>
<circle cx="90" cy="199" r="1" fill="#DDDDDD"/>
<circle cx="90" cy="205" r="1" fill="#DDDDDD"/>
<circle cx="90" cy="211" r="1" fill="#DDDDDD"/>
<circle cx="96" cy="181" r="1" fill="#DDDDDD"/>
<circle cx="96" cy="187" r="1" fill="#DDDDDD"/>
<circle cx="96" cy="193" r="1" fill="#DDDDDD"/>
<circle cx="96" cy="199" r="1" fill="#DDDDDD"/>
<circle cx="96" cy="205" r="1" fill="#DDDDDD"/>
<circle cx="96" cy="211" r="1" fill="#DDDDDD"/>
<circle cx="102" cy="181" r="1" fill="#DDDDDD"/>
<circle cx="102" cy="187" r="1" fill="#DDDDDD"/>
<circle cx="102" cy="193" r="1" fill="#DDDDDD"/>
<circle cx="102" cy="199" r="1" fill="#DDDDDD"/>
<circle cx="102" cy="205" r="1" fill="#DDDDDD"/>
<circle cx="102" cy="211" r="1" fill="#DDDDDD"/>
<circle cx="108" cy="181" r="1" fill="#DDDDDD"/>
<circle cx="108" cy="187" r="1" fill="#DDDDDD"/>
<circle cx="108" cy="193" r="1" fill="#DDDDDD"/>
<circle cx="108" cy="199" r="1" fill="#DDDDDD"/>
<circle cx="108" cy="205" r="1" fill="#DDDDDD"/>
<circle cx="108" cy="211" r="1" fill="#DDDDDD"/>
<circle cx="114" cy="181" r="1" fill="#DDDDDD"/>
<circle cx="114" cy="187" r="1" fill="#DDDDDD"/>
<circle cx="114" cy="193" r="1" fill="#DDDDDD"/>
<circle cx="114" cy="199" r="1" fill="#DDDDDD"/>
<circle cx="114" cy="205" r="1" fill="#DDDDDD"/>
<circle cx="114" cy="211" r="1" fill="#DDDDDD"/>
<circle cx="120" cy="181" r="1" fill="#DDDDDD"/>
<circle cx="120" cy="187" r="1" fill="#DDDDDD"/>
<circle cx="120" cy="193" r="1" fill="#DDDDDD"/>
<circle cx="120" cy="199" r="1" fill="#DDDDDD"/>
<circle cx="120" cy="205" r="1" fill="#DDDDDD"/>
<circle cx="120" cy="211" r="1" fill="#DDDDDD"/>
<circle cx="126" cy="181" r="1" fill="#DDDDDD"/>
<circle cx="126" cy="187" r="1" fill="#DDDDDD"/>
<circle cx="126" cy="193" r="1" fill="#DDDDDD"/>
<circle cx="126" cy="199" r="1" fill="#DDDDDD"/>
<circle cx="126" cy="205" r="1" fill="#DDDDDD"/>
<circle cx="126" cy="211" r="1" fill="#DDDDDD"/>
<circle cx="2" cy="181" r="1" fill="#DDDDDD"/>
<circle cx="2" cy="187" r="1" fill="#DDDDDD"/>
<circle cx="2" cy="193" r="1" fill="#DDDDDD"/>
<circle cx="2" cy="199" r="1" fill="#DDDDDD"/>
<circle cx="2" cy="205" r="1" fill="#DDDDDD"/>
<circle cx="2" cy="211" r="1" fill="#DDDDDD"/>
<circle cx="8" cy="181" r="1" fill="#DDDDDD"/>
<circle cx="8" cy="187" r="1" fill="#DDDDDD"/>
<circle cx="8" cy="193" r="1" fill="#DDDDDD"/>
<circle cx="8" cy="199" r="1" fill="#DDDDDD"/>
<circle cx="8" cy="205" r="1" fill="#DDDDDD"/>
<circle cx="8" cy="211" r="1" fill="#DDDDDD"/>
<circle cx="14" cy="181" r="1" fill="#DDDDDD"/>
<circle cx="14" cy="187" r="1" fill="#DDDDDD"/>
<circle cx="14" cy="193" r="1" fill="#DDDDDD"/>
<circle cx="14" cy="199" r="1" fill="#DDDDDD"/>
<circle cx="14" cy="205" r="1" fill="#DDDDDD"/>
<circle cx="14" cy="211" r="1" fill="#DDDDDD"/>
<circle cx="20" cy="181" r="1" fill="#DDDDDD"/>
<circle cx="20" cy="187" r="1" fill="#DDDDDD"/>
<circle cx="20" cy="193" r="1" fill="#DDDDDD"/>
<circle cx="20" cy="199" r="1" fill="#DDDDDD"/>
<circle cx="20" cy="205" r="1" fill="#DDDDDD"/>
<circle cx="20" cy="211" r="1" fill="#DDDDDD"/>
<circle cx="26" cy="181" r="1" fill="#DDDDDD"/>
<circle cx="26" cy="187" r="1" fill="#DDDDDD"/>
<circle cx="26" cy="193" r="1" fill="#DDDDDD"/>
<circle cx="26" cy="199" r="1" fill="#DDDDDD"/>
<circle cx="26" cy="205" r="1" fill="#DDDDDD"/>
<circle cx="26" cy="211" r="1" fill="#DDDDDD"/>
<circle cx="32" cy="181" r="1" fill="#DDDDDD"/>
<circle cx="32" cy="187" r="1" fill="#DDDDDD"/>
<circle cx="32" cy="193" r="1" fill="#DDDDDD"/>
<circle cx="32" cy="199" r="1" fill="#DDDDDD"/>
<circle cx="32" cy="205" r="1" fill="#DDDDDD"/>
<circle cx="32" cy="211" r="1" fill="#DDDDDD"/>
<circle cx="38" cy="181" r="1" fill="#DDDDDD"/>
<circle cx="38" cy="187" r="1" fill="#DDDDDD"/>
<circle cx="38" cy="193" r="1" fill="#DDDDDD"/>
<circle cx="38" cy="199" r="1" fill="#DDDDDD"/>
<circle cx="38" cy="205" r="1" fill="#DDDDDD"/>
<circle cx="38" cy="211" r="1" fill="#DDDDDD"/>
<circle cx="2" cy="181" r="1" fill="#DDDDDD"/>
<circle cx="2" cy="187" r="1" fill="#DDDDDD"/>
<circle cx="2" cy="193" r="1" fill="#DDDDDD"/>
<circle cx="2" cy="199" r="1" fill="#DDDDDD"/>
<circle cx="2" cy="205" r="1" fill="#DDDDDD"/>
<circle cx="2" cy="211" r="1" fill="#DDDDDD"/>
<circle cx="8" cy="181" r="1" fill="#DDDDDD"/>
<circle cx="8" cy="187" r="1" fill="#DDDDDD"/>
<circle cx="8" cy="193" r="1" fill="#DDDDDD"/>
<circle cx="8" cy="199" r="1" fill="#DDDDDD"/>
<circle cx="8" cy="205" r="1" fill="#DDDDDD"/>
<circle cx="8" cy="211" r="1" fill="#DDDDDD"/>
<circle cx="14" cy="181" r="1" fill="#DDDDDD"/>
<circle cx="14" cy="187" r="1" fill="#DDDDDD"/>
<circle cx="14" cy="193" r="1" fill="#DDDDDD"/>
<circle cx="14" cy="199" r="1" fill="#DDDDDD"/>
<circle cx="14" cy="205" r="1" fill="#DDDDDD"/>
<circle cx="14" cy="211" r="1" fill="#DDDDDD"/>
<circle cx="20" cy="181" r="1" fill="#DDDDDD"/>
<circle cx="20" cy="187" r="1" fill="#DDDDDD"/>
<circle cx="20" cy="193" r="1" fill="#DDDDDD"/>
<circle cx="20" cy="199" r="1" fill="#DDDDDD"/>
<circle cx="20" cy="205" r="1" fill="#DDDDDD"/>
<circle cx="20" cy="211" r="1" fill="#DDDDDD"/>
<circle cx="26" cy="181" r="1" fill="#DDDDDD"/>
<circle cx="26" cy="187" r="1" fill="#DDDDDD"/>
<circle cx="26" cy="193" r="1" fill="#DDDDDD"/>
<circle cx="26" cy="199" r="1" fill="#DDDDDD"/>
<circle cx="26" cy="205" r="1" fill="#DDDDDD"/>
<circle cx="26" cy="211" r="1" fill="#DDDDDD"/>
<circle cx="32" cy="181" r="1" fill="#DDDDDD"/>
<circle cx="32" cy="187" r="1" fill="#DDDDDD"/>
<circle cx="32" cy="193" r="1" fill="#DDDDDD"/>
<circle cx="32" cy="199" r="1" fill="#DDDDDD"/>
<circle cx="32" cy="205" r="1" fill="#DDDDDD"/>
<circle cx="32" cy="211" r="1" fill="#DDDDDD"/>
<circle cx="38" cy="181" r="1" fill="#DDDDDD"/>
<circle cx="38" cy="187" r="1" fill="#DDDDDD"/>
<circle cx="38" cy="193" r="1" fill="#DDDDDD"/>
<circle cx="38" cy="199" r="1" fill="#DDDDDD"/>
<circle cx="38" cy="205" r="1" fill="#DDDDDD"/>
<circle cx="38" cy="211" r="1" fill="#DDDDDD"/>
<circle cx="260" cy="8" r="1" fill="#DDDDDD"/>
<circle cx="260" cy="14" r="1" fill="#DDDDDD"/>
<circle cx="260" cy="20" r="1" fill="#DDDDDD"/>
<circle cx="260" cy="26" r="1" fill="#DDDDDD"/>
<circle cx="260" cy="32" r="1" fill="#DDDDDD"/>
<circle cx="260" cy="38" r="1" fill="#DDDDDD"/>
<circle cx="266" cy="8" r="1" fill="#DDDDDD"/>
<circle cx="266" cy="14" r="1" fill="#DDDDDD"/>
<circle cx="266" cy="20" r="1" fill="#DDDDDD"/>
<circle cx="266" cy="26" r="1" fill="#DDDDDD"/>
<circle cx="266" cy="32" r="1" fill="#DDDDDD"/>
<circle cx="266" cy="38" r="1" fill="#DDDDDD"/>
<circle cx="272" cy="8" r="1" fill="#DDDDDD"/>
<circle cx="272" cy="14" r="1" fill="#DDDDDD"/>
<circle cx="272" cy="20" r="1" fill="#DDDDDD"/>
<circle cx="272" cy="26" r="1" fill="#DDDDDD"/>
<circle cx="272" cy="32" r="1" fill="#DDDDDD"/>
<circle cx="272" cy="38" r="1" fill="#DDDDDD"/>
<circle cx="278" cy="8" r="1" fill="#DDDDDD"/>
<circle cx="278" cy="14" r="1" fill="#DDDDDD"/>
<circle cx="278" cy="20" r="1" fill="#DDDDDD"/>
<circle cx="278" cy="26" r="1" fill="#DDDDDD"/>
<circle cx="278" cy="32" r="1" fill="#DDDDDD"/>
<circle cx="278" cy="38" r="1" fill="#DDDDDD"/>
<circle cx="284" cy="8" r="1" fill="#DDDDDD"/>
<circle cx="284" cy="14" r="1" fill="#DDDDDD"/>
<circle cx="284" cy="20" r="1" fill="#DDDDDD"/>
<circle cx="284" cy="26" r="1" fill="#DDDDDD"/>
<circle cx="284" cy="32" r="1" fill="#DDDDDD"/>
<circle cx="284" cy="38" r="1" fill="#DDDDDD"/>
<circle cx="290" cy="8" r="1" fill="#DDDDDD"/>
<circle cx="290" cy="14" r="1" fill="#DDDDDD"/>
<circle cx="290" cy="20" r="1" fill="#DDDDDD"/>
<circle cx="290" cy="26" r="1" fill="#DDDDDD"/>
<circle cx="290" cy="32" r="1" fill="#DDDDDD"/>
<circle cx="290" cy="38" r="1" fill="#DDDDDD"/>
<circle cx="296" cy="8" r="1" fill="#DDDDDD"/>
<circle cx="296" cy="14" r="1" fill="#DDDDDD"/>
<circle cx="296" cy="20" r="1" fill="#DDDDDD"/>
<circle cx="296" cy="26" r="1" fill="#DDDDDD"/>
<circle cx="296" cy="32" r="1" fill="#DDDDDD"/>
<circle cx="296" cy="38" r="1" fill="#DDDDDD"/>
<circle cx="260" cy="8" r="1" fill="#DDDDDD"/>
<circle cx="260" cy="14" r="1" fill="#DDDDDD"/>
<circle cx="260" cy="20" r="1" fill="#DDDDDD"/>
<circle cx="260" cy="26" r="1" fill="#DDDDDD"/>
<circle cx="260" cy="32" r="1" fill="#DDDDDD"/>
<circle cx="260" cy="38" r="1" fill="#DDDDDD"/>
<circle cx="266" cy="8" r="1" fill="#DDDDDD"/>
<circle cx="266" cy="14" r="1" fill="#DDDDDD"/>
<circle cx="266" cy="20" r="1" fill="#DDDDDD"/>
<circle cx="266" cy="26" r="1" fill="#DDDDDD"/>
<circle cx="266" cy="32" r="1" fill="#DDDDDD"/>
<circle cx="266" cy="38" r="1" fill="#DDDDDD"/>
<circle cx="272" cy="8" r="1" fill="#DDDDDD"/>
<circle cx="272" cy="14" r="1" fill="#DDDDDD"/>
<circle cx="272" cy="20" r="1" fill="#DDDDDD"/>
<circle cx="272" cy="26" r="1" fill="#DDDDDD"/>
<circle cx="272" cy="32" r="1" fill="#DDDDDD"/>
<circle cx="272" cy="38" r="1" fill="#DDDDDD"/>
<circle cx="278" cy="8" r="1" fill="#DDDDDD"/>
<circle cx="278" cy="14" r="1" fill="#DDDDDD"/>
<circle cx="278" cy="20" r="1" fill="#DDDDDD"/>
<circle cx="278" cy="26" r="1" fill="#DDDDDD"/>
<circle cx="278" cy="32" r="1" fill="#DDDDDD"/>
<circle cx="278" cy="38" r="1" fill="#DDDDDD"/>
<circle cx="284" cy="8" r="1" fill="#DDDDDD"/>
<circle cx="284" cy="14" r="1" fill="#DDDDDD"/>
<circle cx="284" cy="20" r="1" fill="#DDDDDD"/>
<circle cx="284" cy="26" r="1" fill="#DDDDDD"/>
<circle cx="284" cy="32" r="1" fill="#DDDDDD"/>
<circle cx="284" cy="38" r="1" fill="#DDDDDD"/>
<circle cx="290" cy="8" r="1" fill="#DDDDDD"/>
<circle cx="290" cy="14" r="1" fill="#DDDDDD"/>
<circle cx="290" cy="20" r="1" fill="#DDDDDD"/>
<circle cx="290" cy="26" r="1" fill="#DDDDDD"/>
<circle cx="290" cy="32" r="1" fill="#DDDDDD"/>
<circle cx="290" cy="38" r="1" fill="#DDDDDD"/>
<circle cx="296" cy="8" r="1" fill="#DDDDDD"/>
<circle cx="296" cy="14" r="1" fill="#DDDDDD"/>
<circle cx="296" cy="20" r="1" fill="#DDDDDD"/>
<circle cx="296" cy="26" r="1" fill="#DDDDDD"/>
<circle cx="296" cy="32" r="1" fill="#DDDDDD"/>
<circle cx="296" cy="38" r="1" fill="#DDDDDD"/>
</svg>
