<svg width="88" height="161" viewBox="0 0 88 161" fill="none" xmlns="http://www.w3.org/2000/svg">
<circle cx="49.5" cy="84.5" r="2.5" fill="#D9D9D9"/>
<circle cx="49.5" cy="90.5" r="2.5" fill="#D9D9D9"/>
<circle cx="49.5" cy="96.5" r="2.5" fill="#D9D9D9"/>
<circle cx="49.5" cy="102.5" r="2.5" fill="#D9D9D9"/>
<circle cx="49.5" cy="108.5" r="2.5" fill="#D9D9D9"/>
<circle cx="49.5" cy="114.5" r="2.5" fill="#D9D9D9"/>
<circle cx="55.5" cy="84.5" r="2.5" fill="#D9D9D9"/>
<circle cx="55.5" cy="90.5" r="2.5" fill="#D9D9D9"/>
<circle cx="55.5" cy="96.5" r="2.5" fill="#D9D9D9"/>
<circle cx="55.5" cy="102.5" r="2.5" fill="#D9D9D9"/>
<circle cx="55.5" cy="108.5" r="2.5" fill="#D9D9D9"/>
<circle cx="55.5" cy="114.5" r="2.5" fill="#D9D9D9"/>
<circle cx="61.5" cy="84.5" r="2.5" fill="#D9D9D9"/>
<circle cx="61.5" cy="90.5" r="2.5" fill="#D9D9D9"/>
<circle cx="61.5" cy="96.5" r="2.5" fill="#D9D9D9"/>
<circle cx="61.5" cy="102.5" r="2.5" fill="#D9D9D9"/>
<circle cx="61.5" cy="108.5" r="2.5" fill="#D9D9D9"/>
<circle cx="61.5" cy="114.5" r="2.5" fill="#D9D9D9"/>
<circle cx="67.5" cy="84.5" r="2.5" fill="#D9D9D9"/>
<circle cx="67.5" cy="90.5" r="2.5" fill="#D9D9D9"/>
<circle cx="67.5" cy="96.5" r="2.5" fill="#D9D9D9"/>
<circle cx="67.5" cy="102.5" r="2.5" fill="#D9D9D9"/>
<circle cx="67.5" cy="108.5" r="2.5" fill="#D9D9D9"/>
<circle cx="67.5" cy="114.5" r="2.5" fill="#D9D9D9"/>
<circle cx="73.5" cy="84.5" r="2.5" fill="#D9D9D9"/>
<circle cx="73.5" cy="90.5" r="2.5" fill="#D9D9D9"/>
<circle cx="73.5" cy="96.5" r="2.5" fill="#D9D9D9"/>
<circle cx="73.5" cy="102.5" r="2.5" fill="#D9D9D9"/>
<circle cx="73.5" cy="108.5" r="2.5" fill="#D9D9D9"/>
<circle cx="73.5" cy="114.5" r="2.5" fill="#D9D9D9"/>
<circle cx="79.5" cy="84.5" r="2.5" fill="#D9D9D9"/>
<circle cx="79.5" cy="90.5" r="2.5" fill="#D9D9D9"/>
<circle cx="79.5" cy="96.5" r="2.5" fill="#D9D9D9"/>
<circle cx="79.5" cy="102.5" r="2.5" fill="#D9D9D9"/>
<circle cx="79.5" cy="108.5" r="2.5" fill="#D9D9D9"/>
<circle cx="79.5" cy="114.5" r="2.5" fill="#D9D9D9"/>
<circle cx="85.5" cy="84.5" r="2.5" fill="#D9D9D9"/>
<circle cx="85.5" cy="90.5" r="2.5" fill="#D9D9D9"/>
<circle cx="85.5" cy="96.5" r="2.5" fill="#D9D9D9"/>
<circle cx="85.5" cy="102.5" r="2.5" fill="#D9D9D9"/>
<circle cx="85.5" cy="108.5" r="2.5" fill="#D9D9D9"/>
<circle cx="85.5" cy="114.5" r="2.5" fill="#D9D9D9"/>
<circle cx="49.5" cy="84.5" r="2.5" fill="#D9D9D9"/>
<circle cx="49.5" cy="90.5" r="2.5" fill="#D9D9D9"/>
<circle cx="49.5" cy="96.5" r="2.5" fill="#D9D9D9"/>
<circle cx="49.5" cy="102.5" r="2.5" fill="#D9D9D9"/>
<circle cx="49.5" cy="108.5" r="2.5" fill="#D9D9D9"/>
<circle cx="49.5" cy="114.5" r="2.5" fill="#D9D9D9"/>
<circle cx="55.5" cy="84.5" r="2.5" fill="#D9D9D9"/>
<circle cx="55.5" cy="90.5" r="2.5" fill="#D9D9D9"/>
<circle cx="55.5" cy="96.5" r="2.5" fill="#D9D9D9"/>
<circle cx="55.5" cy="102.5" r="2.5" fill="#D9D9D9"/>
<circle cx="55.5" cy="108.5" r="2.5" fill="#D9D9D9"/>
<circle cx="55.5" cy="114.5" r="2.5" fill="#D9D9D9"/>
<circle cx="61.5" cy="84.5" r="2.5" fill="#D9D9D9"/>
<circle cx="61.5" cy="90.5" r="2.5" fill="#D9D9D9"/>
<circle cx="61.5" cy="96.5" r="2.5" fill="#D9D9D9"/>
<circle cx="61.5" cy="102.5" r="2.5" fill="#D9D9D9"/>
<circle cx="61.5" cy="108.5" r="2.5" fill="#D9D9D9"/>
<circle cx="61.5" cy="114.5" r="2.5" fill="#D9D9D9"/>
<circle cx="67.5" cy="84.5" r="2.5" fill="#D9D9D9"/>
<circle cx="67.5" cy="90.5" r="2.5" fill="#D9D9D9"/>
<circle cx="67.5" cy="96.5" r="2.5" fill="#D9D9D9"/>
<circle cx="67.5" cy="102.5" r="2.5" fill="#D9D9D9"/>
<circle cx="67.5" cy="108.5" r="2.5" fill="#D9D9D9"/>
<circle cx="67.5" cy="114.5" r="2.5" fill="#D9D9D9"/>
<circle cx="73.5" cy="84.5" r="2.5" fill="#D9D9D9"/>
<circle cx="73.5" cy="90.5" r="2.5" fill="#D9D9D9"/>
<circle cx="73.5" cy="96.5" r="2.5" fill="#D9D9D9"/>
<circle cx="73.5" cy="102.5" r="2.5" fill="#D9D9D9"/>
<circle cx="73.5" cy="108.5" r="2.5" fill="#D9D9D9"/>
<circle cx="73.5" cy="114.5" r="2.5" fill="#D9D9D9"/>
<circle cx="79.5" cy="84.5" r="2.5" fill="#D9D9D9"/>
<circle cx="79.5" cy="90.5" r="2.5" fill="#D9D9D9"/>
<circle cx="79.5" cy="96.5" r="2.5" fill="#D9D9D9"/>
<circle cx="79.5" cy="102.5" r="2.5" fill="#D9D9D9"/>
<circle cx="79.5" cy="108.5" r="2.5" fill="#D9D9D9"/>
<circle cx="79.5" cy="114.5" r="2.5" fill="#D9D9D9"/>
<circle cx="85.5" cy="84.5" r="2.5" fill="#D9D9D9"/>
<circle cx="85.5" cy="90.5" r="2.5" fill="#D9D9D9"/>
<circle cx="85.5" cy="96.5" r="2.5" fill="#D9D9D9"/>
<circle cx="85.5" cy="102.5" r="2.5" fill="#D9D9D9"/>
<circle cx="85.5" cy="108.5" r="2.5" fill="#D9D9D9"/>
<circle cx="85.5" cy="114.5" r="2.5" fill="#D9D9D9"/>
<circle cx="49.5" cy="43.5" r="2.5" fill="#D9D9D9"/>
<circle cx="49.5" cy="49.5" r="2.5" fill="#D9D9D9"/>
<circle cx="49.5" cy="55.5" r="2.5" fill="#D9D9D9"/>
<circle cx="49.5" cy="61.5" r="2.5" fill="#D9D9D9"/>
<circle cx="49.5" cy="67.5" r="2.5" fill="#D9D9D9"/>
<circle cx="49.5" cy="73.5" r="2.5" fill="#D9D9D9"/>
<circle cx="55.5" cy="43.5" r="2.5" fill="#D9D9D9"/>
<circle cx="55.5" cy="49.5" r="2.5" fill="#D9D9D9"/>
<circle cx="55.5" cy="55.5" r="2.5" fill="#D9D9D9"/>
<circle cx="55.5" cy="61.5" r="2.5" fill="#D9D9D9"/>
<circle cx="55.5" cy="67.5" r="2.5" fill="#D9D9D9"/>
<circle cx="55.5" cy="73.5" r="2.5" fill="#D9D9D9"/>
<circle cx="61.5" cy="43.5" r="2.5" fill="#D9D9D9"/>
<circle cx="61.5" cy="49.5" r="2.5" fill="#D9D9D9"/>
<circle cx="61.5" cy="55.5" r="2.5" fill="#D9D9D9"/>
<circle cx="61.5" cy="61.5" r="2.5" fill="#D9D9D9"/>
<circle cx="61.5" cy="67.5" r="2.5" fill="#D9D9D9"/>
<circle cx="61.5" cy="73.5" r="2.5" fill="#D9D9D9"/>
<circle cx="67.5" cy="43.5" r="2.5" fill="#D9D9D9"/>
<circle cx="67.5" cy="49.5" r="2.5" fill="#D9D9D9"/>
<circle cx="67.5" cy="55.5" r="2.5" fill="#D9D9D9"/>
<circle cx="67.5" cy="61.5" r="2.5" fill="#D9D9D9"/>
<circle cx="67.5" cy="67.5" r="2.5" fill="#D9D9D9"/>
<circle cx="67.5" cy="73.5" r="2.5" fill="#D9D9D9"/>
<circle cx="73.5" cy="43.5" r="2.5" fill="#D9D9D9"/>
<circle cx="73.5" cy="49.5" r="2.5" fill="#D9D9D9"/>
<circle cx="73.5" cy="55.5" r="2.5" fill="#D9D9D9"/>
<circle cx="73.5" cy="61.5" r="2.5" fill="#D9D9D9"/>
<circle cx="73.5" cy="67.5" r="2.5" fill="#D9D9D9"/>
<circle cx="73.5" cy="73.5" r="2.5" fill="#D9D9D9"/>
<circle cx="79.5" cy="43.5" r="2.5" fill="#D9D9D9"/>
<circle cx="79.5" cy="49.5" r="2.5" fill="#D9D9D9"/>
<circle cx="79.5" cy="55.5" r="2.5" fill="#D9D9D9"/>
<circle cx="79.5" cy="61.5" r="2.5" fill="#D9D9D9"/>
<circle cx="79.5" cy="67.5" r="2.5" fill="#D9D9D9"/>
<circle cx="79.5" cy="73.5" r="2.5" fill="#D9D9D9"/>
<circle cx="85.5" cy="43.5" r="2.5" fill="#D9D9D9"/>
<circle cx="85.5" cy="49.5" r="2.5" fill="#D9D9D9"/>
<circle cx="85.5" cy="55.5" r="2.5" fill="#D9D9D9"/>
<circle cx="85.5" cy="61.5" r="2.5" fill="#D9D9D9"/>
<circle cx="85.5" cy="67.5" r="2.5" fill="#D9D9D9"/>
<circle cx="85.5" cy="73.5" r="2.5" fill="#D9D9D9"/>
<circle cx="49.5" cy="43.5" r="2.5" fill="#D9D9D9"/>
<circle cx="49.5" cy="49.5" r="2.5" fill="#D9D9D9"/>
<circle cx="49.5" cy="55.5" r="2.5" fill="#D9D9D9"/>
<circle cx="49.5" cy="61.5" r="2.5" fill="#D9D9D9"/>
<circle cx="49.5" cy="67.5" r="2.5" fill="#D9D9D9"/>
<circle cx="49.5" cy="73.5" r="2.5" fill="#D9D9D9"/>
<circle cx="55.5" cy="43.5" r="2.5" fill="#D9D9D9"/>
<circle cx="55.5" cy="49.5" r="2.5" fill="#D9D9D9"/>
<circle cx="55.5" cy="55.5" r="2.5" fill="#D9D9D9"/>
<circle cx="55.5" cy="61.5" r="2.5" fill="#D9D9D9"/>
<circle cx="55.5" cy="67.5" r="2.5" fill="#D9D9D9"/>
<circle cx="55.5" cy="73.5" r="2.5" fill="#D9D9D9"/>
<circle cx="61.5" cy="43.5" r="2.5" fill="#D9D9D9"/>
<circle cx="61.5" cy="49.5" r="2.5" fill="#D9D9D9"/>
<circle cx="61.5" cy="55.5" r="2.5" fill="#D9D9D9"/>
<circle cx="61.5" cy="61.5" r="2.5" fill="#D9D9D9"/>
<circle cx="61.5" cy="67.5" r="2.5" fill="#D9D9D9"/>
<circle cx="61.5" cy="73.5" r="2.5" fill="#D9D9D9"/>
<circle cx="67.5" cy="43.5" r="2.5" fill="#D9D9D9"/>
<circle cx="67.5" cy="49.5" r="2.5" fill="#D9D9D9"/>
<circle cx="67.5" cy="55.5" r="2.5" fill="#D9D9D9"/>
<circle cx="67.5" cy="61.5" r="2.5" fill="#D9D9D9"/>
<circle cx="67.5" cy="67.5" r="2.5" fill="#D9D9D9"/>
<circle cx="67.5" cy="73.5" r="2.5" fill="#D9D9D9"/>
<circle cx="73.5" cy="43.5" r="2.5" fill="#D9D9D9"/>
<circle cx="73.5" cy="49.5" r="2.5" fill="#D9D9D9"/>
<circle cx="73.5" cy="55.5" r="2.5" fill="#D9D9D9"/>
<circle cx="73.5" cy="61.5" r="2.5" fill="#D9D9D9"/>
<circle cx="73.5" cy="67.5" r="2.5" fill="#D9D9D9"/>
<circle cx="73.5" cy="73.5" r="2.5" fill="#D9D9D9"/>
<circle cx="79.5" cy="43.5" r="2.5" fill="#D9D9D9"/>
<circle cx="79.5" cy="49.5" r="2.5" fill="#D9D9D9"/>
<circle cx="79.5" cy="55.5" r="2.5" fill="#D9D9D9"/>
<circle cx="79.5" cy="61.5" r="2.5" fill="#D9D9D9"/>
<circle cx="79.5" cy="67.5" r="2.5" fill="#D9D9D9"/>
<circle cx="79.5" cy="73.5" r="2.5" fill="#D9D9D9"/>
<circle cx="85.5" cy="43.5" r="2.5" fill="#D9D9D9"/>
<circle cx="85.5" cy="49.5" r="2.5" fill="#D9D9D9"/>
<circle cx="85.5" cy="55.5" r="2.5" fill="#D9D9D9"/>
<circle cx="85.5" cy="61.5" r="2.5" fill="#D9D9D9"/>
<circle cx="85.5" cy="67.5" r="2.5" fill="#D9D9D9"/>
<circle cx="85.5" cy="73.5" r="2.5" fill="#D9D9D9"/>
<circle cx="49.5" cy="2.5" r="2.5" fill="#D9D9D9"/>
<circle cx="49.5" cy="8.5" r="2.5" fill="#D9D9D9"/>
<circle cx="49.5" cy="14.5" r="2.5" fill="#D9D9D9"/>
<circle cx="49.5" cy="20.5" r="2.5" fill="#D9D9D9"/>
<circle cx="49.5" cy="26.5" r="2.5" fill="#D9D9D9"/>
<circle cx="49.5" cy="32.5" r="2.5" fill="#D9D9D9"/>
<circle cx="55.5" cy="2.5" r="2.5" fill="#D9D9D9"/>
<circle cx="55.5" cy="8.5" r="2.5" fill="#D9D9D9"/>
<circle cx="55.5" cy="14.5" r="2.5" fill="#D9D9D9"/>
<circle cx="55.5" cy="20.5" r="2.5" fill="#D9D9D9"/>
<circle cx="55.5" cy="26.5" r="2.5" fill="#D9D9D9"/>
<circle cx="55.5" cy="32.5" r="2.5" fill="#D9D9D9"/>
<circle cx="61.5" cy="2.5" r="2.5" fill="#D9D9D9"/>
<circle cx="61.5" cy="8.5" r="2.5" fill="#D9D9D9"/>
<circle cx="61.5" cy="14.5" r="2.5" fill="#D9D9D9"/>
<circle cx="61.5" cy="20.5" r="2.5" fill="#D9D9D9"/>
<circle cx="61.5" cy="26.5" r="2.5" fill="#D9D9D9"/>
<circle cx="61.5" cy="32.5" r="2.5" fill="#D9D9D9"/>
<circle cx="67.5" cy="2.5" r="2.5" fill="#D9D9D9"/>
<circle cx="67.5" cy="8.5" r="2.5" fill="#D9D9D9"/>
<circle cx="67.5" cy="14.5" r="2.5" fill="#D9D9D9"/>
<circle cx="67.5" cy="20.5" r="2.5" fill="#D9D9D9"/>
<circle cx="67.5" cy="26.5" r="2.5" fill="#D9D9D9"/>
<circle cx="67.5" cy="32.5" r="2.5" fill="#D9D9D9"/>
<circle cx="73.5" cy="2.5" r="2.5" fill="#D9D9D9"/>
<circle cx="73.5" cy="8.5" r="2.5" fill="#D9D9D9"/>
<circle cx="73.5" cy="14.5" r="2.5" fill="#D9D9D9"/>
<circle cx="73.5" cy="20.5" r="2.5" fill="#D9D9D9"/>
<circle cx="73.5" cy="26.5" r="2.5" fill="#D9D9D9"/>
<circle cx="73.5" cy="32.5" r="2.5" fill="#D9D9D9"/>
<circle cx="79.5" cy="2.5" r="2.5" fill="#D9D9D9"/>
<circle cx="79.5" cy="8.5" r="2.5" fill="#D9D9D9"/>
<circle cx="79.5" cy="14.5" r="2.5" fill="#D9D9D9"/>
<circle cx="79.5" cy="20.5" r="2.5" fill="#D9D9D9"/>
<circle cx="79.5" cy="26.5" r="2.5" fill="#D9D9D9"/>
<circle cx="79.5" cy="32.5" r="2.5" fill="#D9D9D9"/>
<circle cx="85.5" cy="2.5" r="2.5" fill="#D9D9D9"/>
<circle cx="85.5" cy="8.5" r="2.5" fill="#D9D9D9"/>
<circle cx="85.5" cy="14.5" r="2.5" fill="#D9D9D9"/>
<circle cx="85.5" cy="20.5" r="2.5" fill="#D9D9D9"/>
<circle cx="85.5" cy="26.5" r="2.5" fill="#D9D9D9"/>
<circle cx="85.5" cy="32.5" r="2.5" fill="#D9D9D9"/>
<circle cx="49.5" cy="2.5" r="2.5" fill="#D9D9D9"/>
<circle cx="49.5" cy="8.5" r="2.5" fill="#D9D9D9"/>
<circle cx="49.5" cy="14.5" r="2.5" fill="#D9D9D9"/>
<circle cx="49.5" cy="20.5" r="2.5" fill="#D9D9D9"/>
<circle cx="49.5" cy="26.5" r="2.5" fill="#D9D9D9"/>
<circle cx="49.5" cy="32.5" r="2.5" fill="#D9D9D9"/>
<circle cx="55.5" cy="2.5" r="2.5" fill="#D9D9D9"/>
<circle cx="55.5" cy="8.5" r="2.5" fill="#D9D9D9"/>
<circle cx="55.5" cy="14.5" r="2.5" fill="#D9D9D9"/>
<circle cx="55.5" cy="20.5" r="2.5" fill="#D9D9D9"/>
<circle cx="55.5" cy="26.5" r="2.5" fill="#D9D9D9"/>
<circle cx="55.5" cy="32.5" r="2.5" fill="#D9D9D9"/>
<circle cx="61.5" cy="2.5" r="2.5" fill="#D9D9D9"/>
<circle cx="61.5" cy="8.5" r="2.5" fill="#D9D9D9"/>
<circle cx="61.5" cy="14.5" r="2.5" fill="#D9D9D9"/>
<circle cx="61.5" cy="20.5" r="2.5" fill="#D9D9D9"/>
<circle cx="61.5" cy="26.5" r="2.5" fill="#D9D9D9"/>
<circle cx="61.5" cy="32.5" r="2.5" fill="#D9D9D9"/>
<circle cx="67.5" cy="2.5" r="2.5" fill="#D9D9D9"/>
<circle cx="67.5" cy="8.5" r="2.5" fill="#D9D9D9"/>
<circle cx="67.5" cy="14.5" r="2.5" fill="#D9D9D9"/>
<circle cx="67.5" cy="20.5" r="2.5" fill="#D9D9D9"/>
<circle cx="67.5" cy="26.5" r="2.5" fill="#D9D9D9"/>
<circle cx="67.5" cy="32.5" r="2.5" fill="#D9D9D9"/>
<circle cx="73.5" cy="2.5" r="2.5" fill="#D9D9D9"/>
<circle cx="73.5" cy="8.5" r="2.5" fill="#D9D9D9"/>
<circle cx="73.5" cy="14.5" r="2.5" fill="#D9D9D9"/>
<circle cx="73.5" cy="20.5" r="2.5" fill="#D9D9D9"/>
<circle cx="73.5" cy="26.5" r="2.5" fill="#D9D9D9"/>
<circle cx="73.5" cy="32.5" r="2.5" fill="#D9D9D9"/>
<circle cx="79.5" cy="2.5" r="2.5" fill="#D9D9D9"/>
<circle cx="79.5" cy="8.5" r="2.5" fill="#D9D9D9"/>
<circle cx="79.5" cy="14.5" r="2.5" fill="#D9D9D9"/>
<circle cx="79.5" cy="20.5" r="2.5" fill="#D9D9D9"/>
<circle cx="79.5" cy="26.5" r="2.5" fill="#D9D9D9"/>
<circle cx="79.5" cy="32.5" r="2.5" fill="#D9D9D9"/>
<circle cx="85.5" cy="2.5" r="2.5" fill="#D9D9D9"/>
<circle cx="85.5" cy="8.5" r="2.5" fill="#D9D9D9"/>
<circle cx="85.5" cy="14.5" r="2.5" fill="#D9D9D9"/>
<circle cx="85.5" cy="20.5" r="2.5" fill="#D9D9D9"/>
<circle cx="85.5" cy="26.5" r="2.5" fill="#D9D9D9"/>
<circle cx="85.5" cy="32.5" r="2.5" fill="#D9D9D9"/>
<circle cx="2.5" cy="128.5" r="2.5" fill="#D9D9D9"/>
<circle cx="2.5" cy="134.5" r="2.5" fill="#D9D9D9"/>
<circle cx="2.5" cy="140.5" r="2.5" fill="#D9D9D9"/>
<circle cx="2.5" cy="146.5" r="2.5" fill="#D9D9D9"/>
<circle cx="2.5" cy="152.5" r="2.5" fill="#D9D9D9"/>
<circle cx="2.5" cy="158.5" r="2.5" fill="#D9D9D9"/>
<circle cx="8.5" cy="128.5" r="2.5" fill="#D9D9D9"/>
<circle cx="8.5" cy="134.5" r="2.5" fill="#D9D9D9"/>
<circle cx="8.5" cy="140.5" r="2.5" fill="#D9D9D9"/>
<circle cx="8.5" cy="146.5" r="2.5" fill="#D9D9D9"/>
<circle cx="8.5" cy="152.5" r="2.5" fill="#D9D9D9"/>
<circle cx="8.5" cy="158.5" r="2.5" fill="#D9D9D9"/>
<circle cx="14.5" cy="128.5" r="2.5" fill="#D9D9D9"/>
<circle cx="14.5" cy="134.5" r="2.5" fill="#D9D9D9"/>
<circle cx="14.5" cy="140.5" r="2.5" fill="#D9D9D9"/>
<circle cx="14.5" cy="146.5" r="2.5" fill="#D9D9D9"/>
<circle cx="14.5" cy="152.5" r="2.5" fill="#D9D9D9"/>
<circle cx="14.5" cy="158.5" r="2.5" fill="#D9D9D9"/>
<circle cx="20.5" cy="128.5" r="2.5" fill="#D9D9D9"/>
<circle cx="20.5" cy="134.5" r="2.5" fill="#D9D9D9"/>
<circle cx="20.5" cy="140.5" r="2.5" fill="#D9D9D9"/>
<circle cx="20.5" cy="146.5" r="2.5" fill="#D9D9D9"/>
<circle cx="20.5" cy="152.5" r="2.5" fill="#D9D9D9"/>
<circle cx="20.5" cy="158.5" r="2.5" fill="#D9D9D9"/>
<circle cx="26.5" cy="128.5" r="2.5" fill="#D9D9D9"/>
<circle cx="26.5" cy="134.5" r="2.5" fill="#D9D9D9"/>
<circle cx="26.5" cy="140.5" r="2.5" fill="#D9D9D9"/>
<circle cx="26.5" cy="146.5" r="2.5" fill="#D9D9D9"/>
<circle cx="26.5" cy="152.5" r="2.5" fill="#D9D9D9"/>
<circle cx="26.5" cy="158.5" r="2.5" fill="#D9D9D9"/>
<circle cx="32.5" cy="128.5" r="2.5" fill="#D9D9D9"/>
<circle cx="32.5" cy="134.5" r="2.5" fill="#D9D9D9"/>
<circle cx="32.5" cy="140.5" r="2.5" fill="#D9D9D9"/>
<circle cx="32.5" cy="146.5" r="2.5" fill="#D9D9D9"/>
<circle cx="32.5" cy="152.5" r="2.5" fill="#D9D9D9"/>
<circle cx="32.5" cy="158.5" r="2.5" fill="#D9D9D9"/>
<circle cx="38.5" cy="128.5" r="2.5" fill="#D9D9D9"/>
<circle cx="38.5" cy="134.5" r="2.5" fill="#D9D9D9"/>
<circle cx="38.5" cy="140.5" r="2.5" fill="#D9D9D9"/>
<circle cx="38.5" cy="146.5" r="2.5" fill="#D9D9D9"/>
<circle cx="38.5" cy="152.5" r="2.5" fill="#D9D9D9"/>
<circle cx="38.5" cy="158.5" r="2.5" fill="#D9D9D9"/>
<circle cx="2.5" cy="128.5" r="2.5" fill="#D9D9D9"/>
<circle cx="2.5" cy="134.5" r="2.5" fill="#D9D9D9"/>
<circle cx="2.5" cy="140.5" r="2.5" fill="#D9D9D9"/>
<circle cx="2.5" cy="146.5" r="2.5" fill="#D9D9D9"/>
<circle cx="2.5" cy="152.5" r="2.5" fill="#D9D9D9"/>
<circle cx="2.5" cy="158.5" r="2.5" fill="#D9D9D9"/>
<circle cx="8.5" cy="128.5" r="2.5" fill="#D9D9D9"/>
<circle cx="8.5" cy="134.5" r="2.5" fill="#D9D9D9"/>
<circle cx="8.5" cy="140.5" r="2.5" fill="#D9D9D9"/>
<circle cx="8.5" cy="146.5" r="2.5" fill="#D9D9D9"/>
<circle cx="8.5" cy="152.5" r="2.5" fill="#D9D9D9"/>
<circle cx="8.5" cy="158.5" r="2.5" fill="#D9D9D9"/>
<circle cx="14.5" cy="128.5" r="2.5" fill="#D9D9D9"/>
<circle cx="14.5" cy="134.5" r="2.5" fill="#D9D9D9"/>
<circle cx="14.5" cy="140.5" r="2.5" fill="#D9D9D9"/>
<circle cx="14.5" cy="146.5" r="2.5" fill="#D9D9D9"/>
<circle cx="14.5" cy="152.5" r="2.5" fill="#D9D9D9"/>
<circle cx="14.5" cy="158.5" r="2.5" fill="#D9D9D9"/>
<circle cx="20.5" cy="128.5" r="2.5" fill="#D9D9D9"/>
<circle cx="20.5" cy="134.5" r="2.5" fill="#D9D9D9"/>
<circle cx="20.5" cy="140.5" r="2.5" fill="#D9D9D9"/>
<circle cx="20.5" cy="146.5" r="2.5" fill="#D9D9D9"/>
<circle cx="20.5" cy="152.5" r="2.5" fill="#D9D9D9"/>
<circle cx="20.5" cy="158.5" r="2.5" fill="#D9D9D9"/>
<circle cx="26.5" cy="128.5" r="2.5" fill="#D9D9D9"/>
<circle cx="26.5" cy="134.5" r="2.5" fill="#D9D9D9"/>
<circle cx="26.5" cy="140.5" r="2.5" fill="#D9D9D9"/>
<circle cx="26.5" cy="146.5" r="2.5" fill="#D9D9D9"/>
<circle cx="26.5" cy="152.5" r="2.5" fill="#D9D9D9"/>
<circle cx="26.5" cy="158.5" r="2.5" fill="#D9D9D9"/>
<circle cx="32.5" cy="128.5" r="2.5" fill="#D9D9D9"/>
<circle cx="32.5" cy="134.5" r="2.5" fill="#D9D9D9"/>
<circle cx="32.5" cy="140.5" r="2.5" fill="#D9D9D9"/>
<circle cx="32.5" cy="146.5" r="2.5" fill="#D9D9D9"/>
<circle cx="32.5" cy="152.5" r="2.5" fill="#D9D9D9"/>
<circle cx="32.5" cy="158.5" r="2.5" fill="#D9D9D9"/>
<circle cx="38.5" cy="128.5" r="2.5" fill="#D9D9D9"/>
<circle cx="38.5" cy="134.5" r="2.5" fill="#D9D9D9"/>
<circle cx="38.5" cy="140.5" r="2.5" fill="#D9D9D9"/>
<circle cx="38.5" cy="146.5" r="2.5" fill="#D9D9D9"/>
<circle cx="38.5" cy="152.5" r="2.5" fill="#D9D9D9"/>
<circle cx="38.5" cy="158.5" r="2.5" fill="#D9D9D9"/>
<circle cx="2.5" cy="87.5" r="2.5" fill="#D9D9D9"/>
<circle cx="2.5" cy="93.5" r="2.5" fill="#D9D9D9"/>
<circle cx="2.5" cy="99.5" r="2.5" fill="#D9D9D9"/>
<circle cx="2.5" cy="105.5" r="2.5" fill="#D9D9D9"/>
<circle cx="2.5" cy="111.5" r="2.5" fill="#D9D9D9"/>
<circle cx="2.5" cy="117.5" r="2.5" fill="#D9D9D9"/>
<circle cx="8.5" cy="87.5" r="2.5" fill="#D9D9D9"/>
<circle cx="8.5" cy="93.5" r="2.5" fill="#D9D9D9"/>
<circle cx="8.5" cy="99.5" r="2.5" fill="#D9D9D9"/>
<circle cx="8.5" cy="105.5" r="2.5" fill="#D9D9D9"/>
<circle cx="8.5" cy="111.5" r="2.5" fill="#D9D9D9"/>
<circle cx="8.5" cy="117.5" r="2.5" fill="#D9D9D9"/>
<circle cx="14.5" cy="87.5" r="2.5" fill="#D9D9D9"/>
<circle cx="14.5" cy="93.5" r="2.5" fill="#D9D9D9"/>
<circle cx="14.5" cy="99.5" r="2.5" fill="#D9D9D9"/>
<circle cx="14.5" cy="105.5" r="2.5" fill="#D9D9D9"/>
<circle cx="14.5" cy="111.5" r="2.5" fill="#D9D9D9"/>
<circle cx="14.5" cy="117.5" r="2.5" fill="#D9D9D9"/>
<circle cx="20.5" cy="87.5" r="2.5" fill="#D9D9D9"/>
<circle cx="20.5" cy="93.5" r="2.5" fill="#D9D9D9"/>
<circle cx="20.5" cy="99.5" r="2.5" fill="#D9D9D9"/>
<circle cx="20.5" cy="105.5" r="2.5" fill="#D9D9D9"/>
<circle cx="20.5" cy="111.5" r="2.5" fill="#D9D9D9"/>
<circle cx="20.5" cy="117.5" r="2.5" fill="#D9D9D9"/>
<circle cx="26.5" cy="87.5" r="2.5" fill="#D9D9D9"/>
<circle cx="26.5" cy="93.5" r="2.5" fill="#D9D9D9"/>
<circle cx="26.5" cy="99.5" r="2.5" fill="#D9D9D9"/>
<circle cx="26.5" cy="105.5" r="2.5" fill="#D9D9D9"/>
<circle cx="26.5" cy="111.5" r="2.5" fill="#D9D9D9"/>
<circle cx="26.5" cy="117.5" r="2.5" fill="#D9D9D9"/>
<circle cx="32.5" cy="87.5" r="2.5" fill="#D9D9D9"/>
<circle cx="32.5" cy="93.5" r="2.5" fill="#D9D9D9"/>
<circle cx="32.5" cy="99.5" r="2.5" fill="#D9D9D9"/>
<circle cx="32.5" cy="105.5" r="2.5" fill="#D9D9D9"/>
<circle cx="32.5" cy="111.5" r="2.5" fill="#D9D9D9"/>
<circle cx="32.5" cy="117.5" r="2.5" fill="#D9D9D9"/>
<circle cx="38.5" cy="87.5" r="2.5" fill="#D9D9D9"/>
<circle cx="38.5" cy="93.5" r="2.5" fill="#D9D9D9"/>
<circle cx="38.5" cy="99.5" r="2.5" fill="#D9D9D9"/>
<circle cx="38.5" cy="105.5" r="2.5" fill="#D9D9D9"/>
<circle cx="38.5" cy="111.5" r="2.5" fill="#D9D9D9"/>
<circle cx="38.5" cy="117.5" r="2.5" fill="#D9D9D9"/>
<circle cx="2.5" cy="87.5" r="2.5" fill="#D9D9D9"/>
<circle cx="2.5" cy="93.5" r="2.5" fill="#D9D9D9"/>
<circle cx="2.5" cy="99.5" r="2.5" fill="#D9D9D9"/>
<circle cx="2.5" cy="105.5" r="2.5" fill="#D9D9D9"/>
<circle cx="2.5" cy="111.5" r="2.5" fill="#D9D9D9"/>
<circle cx="2.5" cy="117.5" r="2.5" fill="#D9D9D9"/>
<circle cx="8.5" cy="87.5" r="2.5" fill="#D9D9D9"/>
<circle cx="8.5" cy="93.5" r="2.5" fill="#D9D9D9"/>
<circle cx="8.5" cy="99.5" r="2.5" fill="#D9D9D9"/>
<circle cx="8.5" cy="105.5" r="2.5" fill="#D9D9D9"/>
<circle cx="8.5" cy="111.5" r="2.5" fill="#D9D9D9"/>
<circle cx="8.5" cy="117.5" r="2.5" fill="#D9D9D9"/>
<circle cx="14.5" cy="87.5" r="2.5" fill="#D9D9D9"/>
<circle cx="14.5" cy="93.5" r="2.5" fill="#D9D9D9"/>
<circle cx="14.5" cy="99.5" r="2.5" fill="#D9D9D9"/>
<circle cx="14.5" cy="105.5" r="2.5" fill="#D9D9D9"/>
<circle cx="14.5" cy="111.5" r="2.5" fill="#D9D9D9"/>
<circle cx="14.5" cy="117.5" r="2.5" fill="#D9D9D9"/>
<circle cx="20.5" cy="87.5" r="2.5" fill="#D9D9D9"/>
<circle cx="20.5" cy="93.5" r="2.5" fill="#D9D9D9"/>
<circle cx="20.5" cy="99.5" r="2.5" fill="#D9D9D9"/>
<circle cx="20.5" cy="105.5" r="2.5" fill="#D9D9D9"/>
<circle cx="20.5" cy="111.5" r="2.5" fill="#D9D9D9"/>
<circle cx="20.5" cy="117.5" r="2.5" fill="#D9D9D9"/>
<circle cx="26.5" cy="87.5" r="2.5" fill="#D9D9D9"/>
<circle cx="26.5" cy="93.5" r="2.5" fill="#D9D9D9"/>
<circle cx="26.5" cy="99.5" r="2.5" fill="#D9D9D9"/>
<circle cx="26.5" cy="105.5" r="2.5" fill="#D9D9D9"/>
<circle cx="26.5" cy="111.5" r="2.5" fill="#D9D9D9"/>
<circle cx="26.5" cy="117.5" r="2.5" fill="#D9D9D9"/>
<circle cx="32.5" cy="87.5" r="2.5" fill="#D9D9D9"/>
<circle cx="32.5" cy="93.5" r="2.5" fill="#D9D9D9"/>
<circle cx="32.5" cy="99.5" r="2.5" fill="#D9D9D9"/>
<circle cx="32.5" cy="105.5" r="2.5" fill="#D9D9D9"/>
<circle cx="32.5" cy="111.5" r="2.5" fill="#D9D9D9"/>
<circle cx="32.5" cy="117.5" r="2.5" fill="#D9D9D9"/>
<circle cx="38.5" cy="87.5" r="2.5" fill="#D9D9D9"/>
<circle cx="38.5" cy="93.5" r="2.5" fill="#D9D9D9"/>
<circle cx="38.5" cy="99.5" r="2.5" fill="#D9D9D9"/>
<circle cx="38.5" cy="105.5" r="2.5" fill="#D9D9D9"/>
<circle cx="38.5" cy="111.5" r="2.5" fill="#D9D9D9"/>
<circle cx="38.5" cy="117.5" r="2.5" fill="#D9D9D9"/>
<circle cx="2.5" cy="46.5" r="2.5" fill="#D9D9D9"/>
<circle cx="2.5" cy="52.5" r="2.5" fill="#D9D9D9"/>
<circle cx="2.5" cy="58.5" r="2.5" fill="#D9D9D9"/>
<circle cx="2.5" cy="64.5" r="2.5" fill="#D9D9D9"/>
<circle cx="2.5" cy="70.5" r="2.5" fill="#D9D9D9"/>
<circle cx="2.5" cy="76.5" r="2.5" fill="#D9D9D9"/>
<circle cx="8.5" cy="46.5" r="2.5" fill="#D9D9D9"/>
<circle cx="8.5" cy="52.5" r="2.5" fill="#D9D9D9"/>
<circle cx="8.5" cy="58.5" r="2.5" fill="#D9D9D9"/>
<circle cx="8.5" cy="64.5" r="2.5" fill="#D9D9D9"/>
<circle cx="8.5" cy="70.5" r="2.5" fill="#D9D9D9"/>
<circle cx="8.5" cy="76.5" r="2.5" fill="#D9D9D9"/>
<circle cx="14.5" cy="46.5" r="2.5" fill="#D9D9D9"/>
<circle cx="14.5" cy="52.5" r="2.5" fill="#D9D9D9"/>
<circle cx="14.5" cy="58.5" r="2.5" fill="#D9D9D9"/>
<circle cx="14.5" cy="64.5" r="2.5" fill="#D9D9D9"/>
<circle cx="14.5" cy="70.5" r="2.5" fill="#D9D9D9"/>
<circle cx="14.5" cy="76.5" r="2.5" fill="#D9D9D9"/>
<circle cx="20.5" cy="46.5" r="2.5" fill="#D9D9D9"/>
<circle cx="20.5" cy="52.5" r="2.5" fill="#D9D9D9"/>
<circle cx="20.5" cy="58.5" r="2.5" fill="#D9D9D9"/>
<circle cx="20.5" cy="64.5" r="2.5" fill="#D9D9D9"/>
<circle cx="20.5" cy="70.5" r="2.5" fill="#D9D9D9"/>
<circle cx="20.5" cy="76.5" r="2.5" fill="#D9D9D9"/>
<circle cx="26.5" cy="46.5" r="2.5" fill="#D9D9D9"/>
<circle cx="26.5" cy="52.5" r="2.5" fill="#D9D9D9"/>
<circle cx="26.5" cy="58.5" r="2.5" fill="#D9D9D9"/>
<circle cx="26.5" cy="64.5" r="2.5" fill="#D9D9D9"/>
<circle cx="26.5" cy="70.5" r="2.5" fill="#D9D9D9"/>
<circle cx="26.5" cy="76.5" r="2.5" fill="#D9D9D9"/>
<circle cx="32.5" cy="46.5" r="2.5" fill="#D9D9D9"/>
<circle cx="32.5" cy="52.5" r="2.5" fill="#D9D9D9"/>
<circle cx="32.5" cy="58.5" r="2.5" fill="#D9D9D9"/>
<circle cx="32.5" cy="64.5" r="2.5" fill="#D9D9D9"/>
<circle cx="32.5" cy="70.5" r="2.5" fill="#D9D9D9"/>
<circle cx="32.5" cy="76.5" r="2.5" fill="#D9D9D9"/>
<circle cx="38.5" cy="46.5" r="2.5" fill="#D9D9D9"/>
<circle cx="38.5" cy="52.5" r="2.5" fill="#D9D9D9"/>
<circle cx="38.5" cy="58.5" r="2.5" fill="#D9D9D9"/>
<circle cx="38.5" cy="64.5" r="2.5" fill="#D9D9D9"/>
<circle cx="38.5" cy="70.5" r="2.5" fill="#D9D9D9"/>
<circle cx="38.5" cy="76.5" r="2.5" fill="#D9D9D9"/>
<circle cx="2.5" cy="46.5" r="2.5" fill="#D9D9D9"/>
<circle cx="2.5" cy="52.5" r="2.5" fill="#D9D9D9"/>
<circle cx="2.5" cy="58.5" r="2.5" fill="#D9D9D9"/>
<circle cx="2.5" cy="64.5" r="2.5" fill="#D9D9D9"/>
<circle cx="2.5" cy="70.5" r="2.5" fill="#D9D9D9"/>
<circle cx="2.5" cy="76.5" r="2.5" fill="#D9D9D9"/>
<circle cx="8.5" cy="46.5" r="2.5" fill="#D9D9D9"/>
<circle cx="8.5" cy="52.5" r="2.5" fill="#D9D9D9"/>
<circle cx="8.5" cy="58.5" r="2.5" fill="#D9D9D9"/>
<circle cx="8.5" cy="64.5" r="2.5" fill="#D9D9D9"/>
<circle cx="8.5" cy="70.5" r="2.5" fill="#D9D9D9"/>
<circle cx="8.5" cy="76.5" r="2.5" fill="#D9D9D9"/>
<circle cx="14.5" cy="46.5" r="2.5" fill="#D9D9D9"/>
<circle cx="14.5" cy="52.5" r="2.5" fill="#D9D9D9"/>
<circle cx="14.5" cy="58.5" r="2.5" fill="#D9D9D9"/>
<circle cx="14.5" cy="64.5" r="2.5" fill="#D9D9D9"/>
<circle cx="14.5" cy="70.5" r="2.5" fill="#D9D9D9"/>
<circle cx="14.5" cy="76.5" r="2.5" fill="#D9D9D9"/>
<circle cx="20.5" cy="46.5" r="2.5" fill="#D9D9D9"/>
<circle cx="20.5" cy="52.5" r="2.5" fill="#D9D9D9"/>
<circle cx="20.5" cy="58.5" r="2.5" fill="#D9D9D9"/>
<circle cx="20.5" cy="64.5" r="2.5" fill="#D9D9D9"/>
<circle cx="20.5" cy="70.5" r="2.5" fill="#D9D9D9"/>
<circle cx="20.5" cy="76.5" r="2.5" fill="#D9D9D9"/>
<circle cx="26.5" cy="46.5" r="2.5" fill="#D9D9D9"/>
<circle cx="26.5" cy="52.5" r="2.5" fill="#D9D9D9"/>
<circle cx="26.5" cy="58.5" r="2.5" fill="#D9D9D9"/>
<circle cx="26.5" cy="64.5" r="2.5" fill="#D9D9D9"/>
<circle cx="26.5" cy="70.5" r="2.5" fill="#D9D9D9"/>
<circle cx="26.5" cy="76.5" r="2.5" fill="#D9D9D9"/>
<circle cx="32.5" cy="46.5" r="2.5" fill="#D9D9D9"/>
<circle cx="32.5" cy="52.5" r="2.5" fill="#D9D9D9"/>
<circle cx="32.5" cy="58.5" r="2.5" fill="#D9D9D9"/>
<circle cx="32.5" cy="64.5" r="2.5" fill="#D9D9D9"/>
<circle cx="32.5" cy="70.5" r="2.5" fill="#D9D9D9"/>
<circle cx="32.5" cy="76.5" r="2.5" fill="#D9D9D9"/>
<circle cx="38.5" cy="46.5" r="2.5" fill="#D9D9D9"/>
<circle cx="38.5" cy="52.5" r="2.5" fill="#D9D9D9"/>
<circle cx="38.5" cy="58.5" r="2.5" fill="#D9D9D9"/>
<circle cx="38.5" cy="64.5" r="2.5" fill="#D9D9D9"/>
<circle cx="38.5" cy="70.5" r="2.5" fill="#D9D9D9"/>
<circle cx="38.5" cy="76.5" r="2.5" fill="#D9D9D9"/>
</svg>
